<svg width="47" height="42" viewBox="0 0 47 42" fill="none" xmlns="http://www.w3.org/2000/svg">
<path d="M34.317 5.63431V32.2685C34.317 34.5221 32.4731 36.366 30.2194 36.366H5.63406C3.3804 36.366 1.5365 34.5221 1.5365 32.2685V5.63431C1.5365 3.38065 3.3804 1.53674 5.63406 1.53674H30.2194C32.4731 1.53674 34.317 3.38065 34.317 5.63431Z" fill="#F3F3F1"/>
<path d="M15.878 11.7805H1.5365V26.122H15.878C18.1419 26.122 19.9755 24.2883 19.9755 22.0244V15.8781C19.9755 13.6142 18.1419 11.7805 15.878 11.7805Z" fill="#EE7333"/>
<path d="M44.5609 32.2683C44.5609 36.7941 40.8915 40.4635 36.3658 40.4635C31.84 40.4635 28.1707 36.7941 28.1707 32.2683C28.1707 27.1464 36.3658 17.9269 36.3658 17.9269C36.3658 17.9269 44.5609 27.1464 44.5609 32.2683Z" fill="#EE7333"/>
<path d="M1.5365 11.7805H5.63406V26.122H1.5365V11.7805Z" fill="#C95518"/>
<path d="M38.4148 40.1971C37.7592 40.3815 37.0831 40.4635 36.366 40.4635C31.8382 40.4635 28.1709 36.7961 28.1709 32.2683C28.1709 27.1464 36.366 17.9269 36.366 17.9269C36.366 17.9269 37.2265 18.9103 38.4148 20.4059C35.9972 23.4996 32.2685 28.8059 32.2685 32.2683C32.2685 36.0791 34.8704 39.2957 38.4148 40.1971Z" fill="#C95518"/>
<path d="M5.63406 12.1003V5.63431C5.63406 3.38065 7.47797 1.53674 9.73163 1.53674H5.63406C3.3804 1.53674 1.5365 3.38065 1.5365 5.63431V12.1003H5.63406Z" fill="#D5DBE1"/>
<path d="M5.63406 32.2684V26.3782H1.5365V32.2684C1.5365 34.5221 3.3804 36.366 5.63406 36.366H9.73163C7.47797 36.366 5.63406 34.5221 5.63406 32.2684Z" fill="#D5DBE1"/>
<path d="M22.0244 37.9025H5.63415C2.52615 37.9025 0 35.3763 0 32.2683V5.63415C0 2.52615 2.52615 0 5.63415 0H30.2195C33.3275 0 35.8537 2.52615 35.8537 5.63415V11.7805H32.7805V5.63415C32.7805 4.22254 31.6311 3.07317 30.2195 3.07317H5.63415C4.22254 3.07317 3.07317 4.22254 3.07317 5.63415V32.2683C3.07317 33.6799 4.22254 34.8293 5.63415 34.8293H22.0244V37.9025Z" fill="black"/>
<path d="M15.878 27.6585H1.5365V24.5854H15.878C17.2896 24.5854 18.4389 23.436 18.4389 22.0244V15.878C18.4389 14.4664 17.2896 13.3171 15.878 13.3171H1.5365V10.2439H15.878C18.986 10.2439 21.5121 12.77 21.5121 15.878V22.0244C21.5121 25.1324 18.986 27.6585 15.878 27.6585Z" fill="black"/>
<path d="M36.3657 42.0001C31 42.0001 26.634 37.6341 26.634 32.2684C26.634 26.7223 34.3395 17.8941 35.2164 16.9066C35.8003 16.251 36.9292 16.251 37.5131 16.9066C38.392 17.8941 46.0954 26.7223 46.0954 32.2684C46.0975 37.6341 41.7315 42.0001 36.3657 42.0001ZM36.3657 20.2994C33.813 23.4156 29.7072 29.0948 29.7072 32.2684C29.7072 35.9398 32.6943 38.9269 36.3657 38.9269C40.0372 38.9269 43.0243 35.9398 43.0243 32.2684C43.0243 29.0948 38.9185 23.4156 36.3657 20.2994Z" fill="black"/>
</svg>
