<svg width="42" height="42" viewBox="0 0 42 42" fill="none" xmlns="http://www.w3.org/2000/svg">
<path d="M37.1871 37.1875H4.81213C2.87838 37.1875 1.31213 35.6213 1.31213 33.6875V7.4375H40.6871V33.6875C40.6871 35.6213 39.1209 37.1875 37.1871 37.1875Z" fill="#F3F3F1"/>
<path d="M1.31213 7.4375H40.6871V4.8125C40.6871 2.87875 39.1209 1.3125 37.1871 1.3125H4.81213C2.87838 1.3125 1.31213 2.87875 1.31213 4.8125V7.4375Z" fill="#EE7333"/>
<path d="M1.31213 38.0625C1.31213 39.5115 2.48813 40.6875 3.93713 40.6875H15.3121C16.7611 40.6875 17.9371 39.5115 17.9371 38.0625V14.4375C17.9371 12.9885 16.7611 11.8125 15.3121 11.8125H3.93713C2.48813 11.8125 1.31213 12.9885 1.31213 14.4375V38.0625Z" fill="#F3F3F1"/>
<path d="M15.3125 11.8125C14.3465 11.8125 13.5625 12.5965 13.5625 13.5625C13.5625 14.5285 12.7785 15.3125 11.8125 15.3125H7.4375C6.4715 15.3125 5.6875 14.5285 5.6875 13.5625C5.6875 12.5965 4.9035 11.8125 3.9375 11.8125H15.3125Z" fill="#EE7333"/>
<path d="M8.74964 1.3125H4.81213C2.87838 1.3125 1.31213 2.87875 1.31213 4.8125V7.4375H5.24963V4.8125C5.24963 2.87875 6.81588 1.3125 8.74964 1.3125Z" fill="#C95518"/>
<path d="M9.625 13.5625C9.625 12.5965 8.841 11.8125 7.875 11.8125H3.9375C4.9035 11.8125 5.6875 12.5965 5.6875 13.5625C5.6875 14.5285 6.4715 15.3125 7.4375 15.3125H11.375C10.409 15.3125 9.625 14.5285 9.625 13.5625Z" fill="#C95518"/>
<path d="M5.24963 38.0625V14.4375C5.24963 12.9885 6.42563 11.8125 7.87463 11.8125H3.93713C2.48813 11.8125 1.31213 12.9885 1.31213 14.4375V38.0625C1.31213 39.5115 2.48813 40.6875 3.93713 40.6875H7.87463C6.42563 40.6875 5.24963 39.5115 5.24963 38.0625Z" fill="#D5DBE1"/>
<path d="M5.24963 7.4375V11.375L1.31213 13.125V7.4375H5.24963Z" fill="#D5DBE1"/>
<path d="M11.8125 16.625H7.4375C5.74875 16.625 4.375 15.2513 4.375 13.5625C4.375 13.321 4.179 13.125 3.9375 13.125V10.5C5.62625 10.5 7 11.8738 7 13.5625C7 13.804 7.196 14 7.4375 14H11.8125C12.054 14 12.25 13.804 12.25 13.5625C12.25 11.8738 13.6237 10.5 15.3125 10.5V13.125C15.071 13.125 14.875 13.321 14.875 13.5625C14.875 15.2513 13.5012 16.625 11.8125 16.625Z" fill="black"/>
<path d="M15.3125 42H3.9375C1.7675 42 0 40.2343 0 38.0625V14.4375C0 12.2657 1.7675 10.5 3.9375 10.5H15.3125C17.4825 10.5 19.25 12.2657 19.25 14.4375V38.0625C19.25 40.2343 17.4825 42 15.3125 42ZM3.9375 13.125C3.21475 13.125 2.625 13.713 2.625 14.4375V38.0625C2.625 38.787 3.21475 39.375 3.9375 39.375H15.3125C16.0352 39.375 16.625 38.787 16.625 38.0625V14.4375C16.625 13.713 16.0352 13.125 15.3125 13.125H3.9375Z" fill="black"/>
<path d="M37.1875 38.5H22.75V35.875H37.1875C38.3933 35.875 39.375 34.8933 39.375 33.6875V4.8125C39.375 3.60675 38.3933 2.625 37.1875 2.625H4.8125C3.60675 2.625 2.625 3.60675 2.625 4.8125V7H0V4.8125C0 2.15775 2.15775 0 4.8125 0H37.1875C39.8422 0 42 2.15775 42 4.8125V33.6875C42 36.3422 39.8422 38.5 37.1875 38.5Z" fill="black"/>
<path d="M19.2501 6.125H40.6876V8.75H19.2501V6.125Z" fill="black"/>
<path d="M25.3149 23.5734L31.8771 17.0112L33.7332 18.8674L27.1711 25.4295L25.3149 23.5734Z" fill="black"/>
<path d="M31.4998 26.25H25.8123C25.0878 26.25 24.4998 25.662 24.4998 24.9375V19.25H27.1248V23.625H31.4998V26.25Z" fill="black"/>
</svg>
