<svg width="40" height="17" viewBox="0 0 40 17" fill="none" xmlns="http://www.w3.org/2000/svg">
<path d="M7.16755 2.07652C6.7078 2.62055 5.97221 3.04965 5.23661 2.98835C5.14466 2.25276 5.5048 1.47119 5.92623 0.988455C6.38598 0.429097 7.19053 0.0306498 7.84184 0C7.91846 0.766244 7.61963 1.51716 7.16755 2.07652ZM7.83418 3.13394C6.7691 3.07264 5.85727 3.73927 5.35155 3.73927C4.83817 3.73927 4.06426 3.16459 3.22139 3.17991C2.12566 3.19524 1.10656 3.81589 0.547201 4.80435C-0.602164 6.78126 0.248366 9.70831 1.35942 11.3174C1.90345 12.1143 2.55476 12.9878 3.41295 12.9572C4.22517 12.9265 4.54699 12.4285 5.52778 12.4285C6.51624 12.4285 6.79975 12.9572 7.65794 12.9419C8.54678 12.9265 9.10614 12.145 9.65018 11.3481C10.2708 10.4439 10.5237 9.56272 10.539 9.51675C10.5237 9.50142 8.82263 8.85012 8.80731 6.88853C8.79198 5.24877 10.1482 4.4672 10.2095 4.42123C9.44329 3.28719 8.24795 3.16459 7.83418 3.13394V3.13394ZM13.9871 0.91183V12.8576H15.8414V8.77349H18.4083C20.753 8.77349 22.4005 7.16438 22.4005 4.835C22.4005 2.50562 20.7837 0.91183 18.4696 0.91183H13.9871ZM15.8414 2.47497H17.9792C19.5884 2.47497 20.5078 3.33316 20.5078 4.84266C20.5078 6.35216 19.5884 7.21802 17.9716 7.21802H15.8414V2.47497ZM25.7873 12.9495C26.952 12.9495 28.0324 12.3595 28.5228 11.4247H28.5611V12.8576H30.2775V6.91152C30.2775 5.18747 28.8982 4.07642 26.7757 4.07642C24.8065 4.07642 23.3506 5.2028 23.297 6.75061H24.9674C25.1053 6.01501 25.7873 5.53228 26.7221 5.53228C27.8561 5.53228 28.4921 6.06099 28.4921 7.03412V7.69309L26.178 7.83101C24.0249 7.96127 22.8602 8.84245 22.8602 10.3749C22.8602 11.9228 24.0632 12.9495 25.7873 12.9495V12.9495ZM26.2853 11.532C25.2969 11.532 24.6686 11.0569 24.6686 10.329C24.6686 9.57805 25.2739 9.14129 26.4309 9.07233L28.4921 8.94207V9.61636C28.4921 10.7351 27.542 11.532 26.2853 11.532V11.532ZM32.5685 16.1064C34.3769 16.1064 35.2274 15.4168 35.9706 13.325L39.2272 4.19135H37.3422L35.1584 11.2485H35.1201L32.9363 4.19135H30.9977L34.1393 12.8882L33.9707 13.4169C33.6872 14.3134 33.2275 14.6582 32.4076 14.6582C32.262 14.6582 31.9785 14.6429 31.8636 14.6276V16.0605C31.9709 16.0911 32.4306 16.1064 32.5685 16.1064V16.1064Z" fill="white"/>
</svg>
