<svg width="42" height="43" viewBox="0 0 42 43" fill="none" xmlns="http://www.w3.org/2000/svg">
<path d="M14.6211 14.0778C18.1438 14.0778 20.9995 11.2384 20.9995 7.73577C20.9995 4.2332 18.1438 1.3938 14.6211 1.3938C11.0984 1.3938 8.24268 4.2332 8.24268 7.73577C8.24268 11.2384 11.0984 14.0778 14.6211 14.0778Z" fill="#EE7333"/>
<path d="M27.3782 14.0778C30.9008 14.0778 33.7565 11.2384 33.7565 7.73577C33.7565 4.2332 30.9008 1.3938 27.3782 1.3938C23.8555 1.3938 20.9998 4.2332 20.9998 7.73577C20.9998 11.2384 23.8555 14.0778 27.3782 14.0778Z" fill="#EE7333"/>
<path d="M38.5601 22.7379C39.527 21.6262 40.1318 20.1952 40.1318 18.612C40.1318 15.1097 37.2758 12.27 33.7534 12.27C30.231 12.27 27.375 15.1097 27.375 18.612C27.375 20.197 27.9798 21.628 28.9467 22.7379H38.5601Z" fill="#EE7333"/>
<path d="M25.8062 22.7379C26.7731 21.6262 27.3779 20.1952 27.3779 18.612C27.3779 15.1097 24.5219 12.27 20.9995 12.27C17.4771 12.27 14.6211 15.1097 14.6211 18.612C14.6211 20.197 15.2259 21.628 16.1928 22.7379H25.8062Z" fill="#EE7333"/>
<path d="M13.0513 22.7323C14.0182 21.6205 14.623 20.1895 14.623 18.6064C14.623 15.1041 11.767 12.2644 8.24461 12.2644C4.72221 12.2644 1.86621 15.1041 1.86621 18.6064C1.86621 20.1914 2.47101 21.6205 3.43794 22.7323H13.0513Z" fill="#EE7333"/>
<path d="M1.86621 22.7379V23.6659C2.33288 33.4842 10.7329 41.298 20.9995 41.298C31.2662 41.298 39.6662 33.4842 40.1329 23.6659V22.7379H1.86621Z" fill="#F3F3F1"/>
<path d="M12.4449 7.73578C12.4449 4.96847 14.2369 2.64104 16.7233 1.77428C16.0625 1.54414 15.3625 1.3938 14.6233 1.3938C11.1009 1.3938 8.24487 4.23349 8.24487 7.73578C8.24487 11.2381 11.1009 14.0778 14.6233 14.0778C15.3625 14.0778 16.0625 13.9274 16.7233 13.6973C14.2369 12.8305 12.4449 10.5012 12.4449 7.73578Z" fill="#C95518"/>
<path d="M25.1998 7.73578C25.1998 4.96847 26.9936 2.64104 29.4782 1.77428C28.8174 1.54414 28.1174 1.3938 27.3782 1.3938C23.8558 1.3938 20.9998 4.23349 20.9998 7.73578C20.9998 11.2381 23.8558 14.0778 27.3782 14.0778C28.1174 14.0778 28.8174 13.9274 29.4782 13.6973C26.9936 12.8305 25.1998 10.5012 25.1998 7.73578Z" fill="#C95518"/>
<path d="M35.8534 12.6505C35.1926 12.4204 34.4926 12.27 33.7534 12.27C30.231 12.27 27.375 15.1097 27.375 18.612C27.375 20.197 27.9798 21.628 28.9467 22.7379H33.1467C32.1798 21.6262 31.575 20.1952 31.575 18.612C31.5769 15.8447 33.3689 13.5173 35.8534 12.6505V12.6505Z" fill="#C95518"/>
<path d="M23.0995 12.6505C22.4387 12.4204 21.7387 12.27 20.9995 12.27C17.4771 12.27 14.6211 15.1097 14.6211 18.612C14.6211 20.197 15.2259 21.628 16.1928 22.7379H20.3928C19.4259 21.6262 18.8211 20.1952 18.8211 18.612C18.8211 15.8447 20.615 13.5173 23.0995 12.6505V12.6505Z" fill="#C95518"/>
<path d="M10.3446 12.6449C9.68382 12.4147 8.98382 12.2644 8.24462 12.2644C4.72221 12.2644 1.86621 15.1041 1.86621 18.6064C1.86621 20.1914 2.47101 21.6205 3.43795 22.7323H7.63795C6.67101 21.6205 6.06621 20.1895 6.06621 18.6064C6.06621 15.8391 7.86008 13.5116 10.3446 12.6449V12.6449Z" fill="#C95518"/>
<path d="M6.06621 23.6659V22.7379H1.86621V23.6659C2.33288 33.4842 10.7329 41.298 20.9996 41.298C21.7108 41.298 22.4089 41.2516 23.0996 41.1792C13.811 40.1992 6.50115 32.8049 6.06621 23.6659Z" fill="#D5DBE1"/>
<path d="M21.0001 42.69C9.9924 42.69 0.972663 34.3639 0.468663 23.7309L0.466797 22.7379H3.2668V23.6659C3.69986 32.7436 11.4895 39.906 21.0001 39.906C30.5108 39.906 38.3004 32.7436 38.7353 23.601L38.7335 22.7379H41.5335V23.6659C41.0276 34.3639 32.0079 42.69 21.0001 42.69V42.69Z" fill="black"/>
<path d="M0 21.3459H42V24.1299H0V21.3459Z" fill="black"/>
<path d="M14.0973 23.6586L11.9992 21.8155C12.7944 20.9191 13.2162 19.8055 13.2162 18.5991C13.2162 17.079 12.548 15.6852 11.3813 14.7739C11.3645 14.7609 11.3346 14.7349 11.3066 14.7089C11.2058 14.6495 11.1144 14.579 11.0322 14.4955L12.0346 13.4802L12.5405 12.2181C12.9026 12.3611 13.121 12.5782 13.2368 12.6933C14.9578 14.024 16.0181 16.216 16.0181 18.5972C16.0162 20.4959 15.3536 22.2461 14.0973 23.6586ZM11.5008 14.8054H11.5026C11.5026 14.8073 11.5026 14.8054 11.5008 14.8054Z" fill="black"/>
<path d="M2.38573 23.6584C1.12946 22.246 0.466797 20.4958 0.466797 18.5989C0.466797 14.3412 3.95933 10.8779 8.2508 10.8779C9.19346 10.8779 10.1119 11.0394 10.9836 11.3586C11.0695 11.3828 11.1516 11.4125 11.2281 11.4514C11.3737 11.5238 11.5156 11.6018 11.6612 11.7094L10.8343 12.8137L10.8436 14.2187H10.8249C10.5468 14.2187 10.2761 14.1371 10.0465 13.9849C9.47533 13.7714 8.8724 13.6638 8.24893 13.6638C5.5012 13.6638 3.26493 15.878 3.26493 18.6008C3.26493 19.809 3.6868 20.9208 4.482 21.8172L2.38573 23.6584Z" fill="black"/>
<path d="M23.3506 14.0908C23.1826 14.0908 22.9978 14.0611 22.841 14.0017C21.6071 13.5432 20.3919 13.5432 19.1581 14.0017C19.0013 14.0611 18.8351 14.0908 18.6671 14.0908L18.6559 13.2685L17.5527 11.7132C17.7749 11.548 17.9877 11.4645 18.1295 11.407C18.1837 11.3847 18.2378 11.368 18.2938 11.3531C20.0839 10.7128 21.9245 10.7165 23.7165 11.3569C23.7687 11.3698 23.821 11.3866 23.8695 11.407C24.0114 11.4626 24.2242 11.548 24.4463 11.7132L23.3506 13.1646V14.0908Z" fill="black"/>
<path d="M15.1628 23.6697C13.8898 22.2628 13.2178 20.5089 13.2178 18.599C13.2178 16.2364 14.2743 14.0463 16.1167 12.5912C16.2511 12.4798 16.4303 12.3332 16.7084 12.2218C16.8746 12.155 17.0519 12.1216 17.2311 12.1216V13.495H18.6498L17.7612 14.3785L17.9554 14.6922C16.6898 15.6944 16.0178 17.0901 16.0178 18.599C16.0178 19.811 16.4434 20.9191 17.246 21.8081L15.1628 23.6697Z" fill="black"/>
<path d="M26.8371 23.6696L24.7558 21.8081C25.5585 20.919 25.9841 19.811 25.9841 18.599C25.9841 17.0901 25.3139 15.6944 24.1417 14.7701C24.1174 14.7497 24.1062 14.7404 24.1081 14.7404C23.9979 14.681 23.8953 14.6086 23.8057 14.5214L24.7838 13.4802L25.2915 12.2218C25.5678 12.3332 25.7489 12.4798 25.8553 12.567C27.7257 14.0463 28.7822 16.2363 28.7822 18.599C28.7841 20.5089 28.1121 22.2628 26.8371 23.6696V23.6696ZM24.2462 14.8035H24.2481C24.2481 14.8054 24.2462 14.8035 24.2462 14.8035Z" fill="black"/>
<path d="M27.9023 23.6585C26.6479 22.2461 25.9834 20.4959 25.9834 18.5991C25.9834 16.2178 27.0418 14.0259 28.8898 12.5856C28.8805 12.58 29.0989 12.3629 29.461 12.22L29.9669 13.4839L30.9861 14.4806C30.9039 14.5622 30.805 14.6402 30.7005 14.7052C30.6687 14.7349 30.637 14.7627 30.6183 14.7775C29.4517 15.6888 28.7834 17.0827 28.7834 18.6028C28.7834 19.811 29.2053 20.9228 30.0005 21.8192L27.9023 23.6585Z" fill="black"/>
<path d="M39.6153 23.6584L37.5172 21.8154C38.3124 20.9189 38.7342 19.8053 38.7342 18.5989C38.7342 15.8762 36.498 13.6619 33.7502 13.6619C33.138 13.6619 32.5425 13.7677 31.9788 13.9738C31.7454 14.1315 31.458 14.2187 31.1742 14.2187L31.1649 12.8137L30.3398 11.7094C30.4854 11.6018 30.6273 11.5238 30.7729 11.4514C30.8588 11.4087 30.9465 11.3753 31.0398 11.3512C31.906 11.0375 32.8169 10.8779 33.7521 10.8779C38.0436 10.8779 41.5361 14.3412 41.5361 18.5989C41.5342 20.4958 40.8716 22.246 39.6153 23.6584V23.6584Z" fill="black"/>
<path d="M14.6214 15.468C10.3318 15.468 6.84302 11.9991 6.84302 7.73398C6.84302 3.46888 10.3318 0 14.6214 0C18.9092 0 22.3998 3.46888 22.3998 7.73398C22.3998 11.9991 18.911 15.468 14.6214 15.468ZM14.6214 2.78587C11.8756 2.78587 9.64302 5.00565 9.64302 7.73584C9.64302 10.466 11.8756 12.6858 14.6214 12.6858C17.3654 12.6858 19.5998 10.466 19.5998 7.73584C19.5998 5.00565 17.3673 2.78587 14.6214 2.78587Z" fill="black"/>
<path d="M27.3785 15.468C23.0908 15.468 19.6001 11.9991 19.6001 7.73398C19.6001 3.46888 23.0889 0 27.3785 0C31.6681 0 35.1569 3.46888 35.1569 7.73398C35.1569 11.9991 31.6662 15.468 27.3785 15.468ZM27.3785 2.78587C24.6345 2.78587 22.4001 5.00565 22.4001 7.73584C22.4001 10.466 24.6326 12.6858 27.3785 12.6858C30.1244 12.6858 32.3569 10.466 32.3569 7.73584C32.3569 5.00565 30.1225 2.78587 27.3785 2.78587Z" fill="black"/>
</svg>
