<svg width="43" height="43" viewBox="0 0 43 43" fill="none" xmlns="http://www.w3.org/2000/svg">
<path d="M18.0693 37.4475H5.50667C3.38068 37.4475 1.64124 35.708 1.64124 33.582V9.42305C1.64124 7.29706 3.38068 5.55762 5.50667 5.55762H11.3048H23.8675H29.6657C31.7916 5.55762 33.5311 7.29706 33.5311 9.42305V16.1876V37.4475H18.0693Z" fill="#F3F3F1"/>
<path d="M5.98985 33.582V9.42305C5.98985 7.29706 7.7293 5.55762 9.85529 5.55762H5.50667C3.38068 5.55762 1.64124 7.29706 1.64124 9.42305V33.582C1.64124 35.708 3.38068 37.4475 5.50667 37.4475H9.85529C7.7293 37.4475 5.98985 35.708 5.98985 33.582Z" fill="#D5DBE1"/>
<path d="M21.935 8.45678H13.2378C12.1709 8.45678 11.3051 7.59092 11.3051 6.52406V3.62498C11.3051 2.55812 12.1709 1.69226 13.2378 1.69226H21.935C23.0019 1.69226 23.8677 2.55812 23.8677 3.62498V6.52406C23.8677 7.59092 23.0019 8.45678 21.935 8.45678Z" fill="#EE7333"/>
<path d="M15.6537 6.52406V3.62498C15.6537 2.55812 16.5195 1.69226 17.5864 1.69226H13.2378C12.1709 1.69226 11.3051 2.55812 11.3051 3.62498V6.52406C11.3051 7.59092 12.1709 8.45678 13.2378 8.45678H17.5864C16.5195 8.45678 15.6537 7.59092 15.6537 6.52406Z" fill="#C95518"/>
<path d="M18.0695 38.8969H5.50687C2.57494 38.8969 0.191895 36.5138 0.191895 33.5819V9.42289C0.191895 6.49095 2.57494 4.10791 5.50687 4.10791H11.305V7.00699H5.50687C4.17523 7.00699 3.09097 8.09124 3.09097 9.42289V33.5819C3.09097 34.9135 4.17523 35.9978 5.50687 35.9978H18.0695V38.8969Z" fill="black"/>
<path d="M34.9807 16.1874H32.0816V9.42289C32.0816 8.09125 30.9974 7.00699 29.6657 7.00699H23.8676V4.10791H29.6657C32.5976 4.10791 34.9807 6.49095 34.9807 9.42289V16.1874Z" fill="black"/>
<path d="M21.9342 9.90627H13.237C11.3719 9.90627 9.85474 8.38909 9.85474 6.52401V3.62493C9.85474 1.75986 11.3719 0.242676 13.237 0.242676H21.9342C23.7993 0.242676 25.3165 1.75986 25.3165 3.62493V6.52401C25.3165 8.38909 23.7993 9.90627 21.9342 9.90627ZM13.237 3.14175C12.9703 3.14175 12.7538 3.35822 12.7538 3.62493V6.52401C12.7538 6.79073 12.9703 7.00719 13.237 7.00719H21.9342C22.201 7.00719 22.4174 6.79073 22.4174 6.52401V3.62493C22.4174 3.35822 22.201 3.14175 21.9342 3.14175H13.237Z" fill="black"/>
<path d="M31.1803 40.31C36.5174 40.31 40.8439 35.9834 40.8439 30.6464C40.8439 25.3093 36.5174 20.9828 31.1803 20.9828C25.8433 20.9828 21.5167 25.3093 21.5167 30.6464C21.5167 35.9834 25.8433 40.31 31.1803 40.31Z" fill="#EE7333"/>
<path d="M25.2991 30.6464C25.2991 25.9576 28.6407 22.0496 33.0725 21.1703C32.4598 21.0485 31.8278 20.9828 31.1803 20.9828C25.8441 20.9828 21.5167 25.3101 21.5167 30.6464C21.5167 35.9826 25.8441 40.31 31.1803 40.31C31.8278 40.31 32.4598 40.2443 33.0705 40.1225C28.6388 39.2431 25.2991 35.3352 25.2991 30.6464Z" fill="#C95518"/>
<path d="M31.1801 42.2427C24.7847 42.2427 19.5837 37.0417 19.5837 30.6464C19.5837 24.251 24.7847 19.05 31.1801 19.05C37.5754 19.05 42.7764 24.251 42.7764 30.6464C42.7764 37.0417 37.5754 42.2427 31.1801 42.2427ZM31.1801 21.9491C26.385 21.9491 22.4828 25.8513 22.4828 30.6464C22.4828 35.4414 26.385 39.3436 31.1801 39.3436C35.9751 39.3436 39.8773 35.4414 39.8773 30.6464C39.8773 25.8513 35.9771 21.9491 31.1801 21.9491Z" fill="black"/>
<path d="M33.5388 35.0549L30.1565 31.6727C29.884 31.4002 29.7313 31.0329 29.7313 30.6464V25.3314H32.6304V30.0453L35.5875 33.0024L33.5388 35.0549Z" fill="black"/>
</svg>
