<svg width="42" height="42" viewBox="0 0 42 42" fill="none" xmlns="http://www.w3.org/2000/svg">
<path d="M5.49902 13.0001L9.99902 11.5001H17.499H27.999L31.999 13.0001V30.0001H11.999H7.99902L1.99902 29.5001L1.49902 24.0001V17.5001L4.99902 17.0001L5.49902 13.0001Z" fill="#F3F3F1"/>
<path d="M27.833 2.7412C27.4027 1.8412 26.465 1.28577 25.469 1.28577C24.3358 1.28577 23.3295 2.01091 22.9712 3.08578L22.6387 4.08521C22.1724 5.48407 20.8609 6.42865 19.3849 6.42865H13.5632C11.35 6.42865 9.38373 7.84465 8.6843 9.94466L8.14258 11.5715H26.9998C28.9627 8.62809 29.2404 5.68464 27.833 2.7412Z" fill="#EE7333"/>
<path d="M30.4285 37.2859C34.2156 37.2859 37.2857 34.2158 37.2857 30.4287C37.2857 26.6416 34.2156 23.5715 30.4285 23.5715C26.6414 23.5715 23.5713 26.6416 23.5713 30.4287C23.5713 34.2158 26.6414 37.2859 30.4285 37.2859Z" fill="#EE7333"/>
<path d="M8.14332 30.4287H4.71472C2.829 30.4287 1.28613 28.8859 1.28613 27.0001V18.4287C1.28613 17.4858 2.05757 16.7144 3.00043 16.7144H6.42902C5.48616 16.7144 4.71472 17.4858 4.71472 18.4287V27.0001C4.71472 28.8859 6.25759 30.4287 8.14332 30.4287Z" fill="#D5DBE1"/>
<path d="M11.571 11.5715C9.68532 11.5715 8.14246 13.1144 8.14246 15.0001V16.7144H4.71387V15.0001C4.71387 13.1144 6.25673 11.5715 8.14246 11.5715H11.571Z" fill="#D5DBE1"/>
<path d="M16.9883 6.42871C14.7769 6.42871 12.8055 7.85157 12.1197 9.94301L11.5712 11.5716H8.14258L8.69115 9.94301C9.37687 7.85157 11.3483 6.42871 13.5598 6.42871H16.9883Z" fill="#C95518"/>
<path d="M32.1428 37.063C31.5942 37.2173 31.0285 37.2859 30.4285 37.2859C26.6399 37.2859 23.5713 34.2173 23.5713 30.4287C23.5713 26.6401 26.6399 23.5715 30.4285 23.5715C31.0285 23.5715 31.5942 23.6401 32.1428 23.7944C29.177 24.5487 26.9999 27.2401 26.9999 30.4287C26.9999 33.6173 29.177 36.3087 32.1428 37.063Z" fill="#C95518"/>
<path d="M15.0001 31.7145H4.71431C2.11373 31.7145 0 29.6008 0 27.0002V18.4287C0 16.7744 1.34572 15.4287 3.00002 15.4287H27.0001V18.0002H3.00002C2.76687 18.0002 2.57144 18.1956 2.57144 18.4287V27.0002C2.57144 28.1813 3.53316 29.1431 4.71431 29.1431H15.0001V31.7145Z" fill="black"/>
<path d="M5.99918 16.7145H3.42773V15.0002C3.42773 12.3996 5.54146 10.2859 8.14205 10.2859H28.7136C31.3142 10.2859 33.4279 12.3996 33.4279 15.0002H30.8565C30.8565 13.8191 29.8947 12.8573 28.7136 12.8573H8.14205C6.9609 12.8573 5.99918 13.8191 5.99918 15.0002V16.7145Z" fill="black"/>
<path d="M28.0687 12.2846L25.9292 10.8583C27.6367 8.29548 27.8801 5.82175 26.6715 3.29488C26.4607 2.85602 25.9892 2.57144 25.4664 2.57144C24.8869 2.57144 24.3727 2.94173 24.1892 3.49202L23.8566 4.48974C23.2138 6.41832 21.4172 7.71433 19.3841 7.71433H13.5623C11.8994 7.71433 10.4286 8.77376 9.90401 10.3526L9.36229 11.9795L6.92285 11.1652L7.46457 9.53834C8.34057 6.90861 10.7903 5.14289 13.5623 5.14289H19.3841C20.3081 5.14289 21.1258 4.55317 21.4172 3.67716L21.7498 2.67944C22.2846 1.07658 23.7778 0 25.4664 0C26.9715 0 28.355 0.857148 28.991 2.18573C30.6007 5.5526 30.2904 8.95034 28.0687 12.2846Z" fill="black"/>
<path d="M30.4281 38.5717C25.9383 38.5717 22.2852 34.9185 22.2852 30.4288C22.2852 25.9391 25.9383 22.2859 30.4281 22.2859C34.9178 22.2859 38.571 25.9391 38.571 30.4288C38.571 34.9185 34.9178 38.5717 30.4281 38.5717ZM30.4281 24.8573C27.356 24.8573 24.8566 27.3568 24.8566 30.4288C24.8566 33.5008 27.356 36.0002 30.4281 36.0002C33.5001 36.0002 35.9995 33.5008 35.9995 30.4288C35.9995 27.3568 33.5001 24.8573 30.4281 24.8573Z" fill="black"/>
<path d="M29.1426 18.8573H31.714V24.8573H29.1426V18.8573Z" fill="black"/>
<path d="M29.1426 36.0002H31.714V42.0003H29.1426V36.0002Z" fill="black"/>
<path d="M18.8564 29.1431H24.8565V31.7145H18.8564V29.1431Z" fill="black"/>
<path d="M36 29.1431H42V31.7145H36V29.1431Z" fill="black"/>
<path d="M21.3291 23.1562L23.1474 21.338L27.3901 25.5806L25.5718 27.3989L21.3291 23.1562Z" fill="black"/>
<path d="M33.4492 35.2786L35.2675 33.4603L39.5102 37.7029L37.6919 39.5212L33.4492 35.2786Z" fill="black"/>
<path d="M21.3291 37.7012L25.5718 33.4585L27.3901 35.2768L23.1474 39.5195L21.3291 37.7012Z" fill="black"/>
<path d="M33.4521 25.5809L37.6948 21.3383L39.5131 23.1566L35.2704 27.3992L33.4521 25.5809Z" fill="black"/>
</svg>
