<svg width="41" height="16" viewBox="0 0 41 16" fill="none" xmlns="http://www.w3.org/2000/svg">
<path d="M18.9295 7.69926V12.3189H17.4514V0.910465H21.3715C21.8394 0.900774 22.3046 0.983059 22.7403 1.15257C23.176 1.32209 23.5735 1.57547 23.9099 1.89811C24.2497 2.20116 24.5201 2.57281 24.703 2.9881C24.8859 3.40338 24.977 3.85267 24.9702 4.30577C24.98 4.7613 24.8902 5.21352 24.7072 5.63145C24.5242 6.04938 24.2522 6.42314 23.9099 6.72709C23.2244 7.3752 22.3783 7.69896 21.3715 7.69835H18.9295V7.69926ZM18.9295 2.31501V6.29744H21.4082C21.68 6.30543 21.9504 6.25709 22.2022 6.15552C22.454 6.05396 22.6817 5.90139 22.8707 5.70759C23.0586 5.52639 23.208 5.30966 23.3101 5.07021C23.4121 4.83076 23.4647 4.57345 23.4647 4.31351C23.4647 4.05357 23.4121 3.79626 23.3101 3.55681C23.208 3.31737 23.0586 3.10063 22.8707 2.91943C22.6841 2.72155 22.4572 2.56524 22.2051 2.46088C21.9529 2.35652 21.6813 2.30649 21.4082 2.3141H18.9295V2.31501ZM28.3762 4.25844C29.4687 4.25844 30.331 4.5479 30.9633 5.12684C31.5955 5.70577 31.9113 6.49952 31.9107 7.5081V12.3189H30.4969V11.2357H30.4326C29.8206 12.1277 29.0066 12.5738 27.9906 12.5738C27.1234 12.5738 26.3978 12.3189 25.8139 11.8091C25.5337 11.5752 25.3097 11.2822 25.1582 10.9515C25.0067 10.6208 24.9315 10.2607 24.9381 9.89756C24.9381 9.08985 25.246 8.4475 25.8617 7.97052C26.4774 7.49354 27.2993 7.25444 28.3275 7.25323C29.2052 7.25323 29.928 7.41252 30.496 7.73112V7.39614C30.4976 7.14856 30.4437 6.90372 30.3381 6.67936C30.2325 6.45501 30.0779 6.25676 29.8855 6.09901C29.4946 5.74935 28.9852 5.55857 28.4588 5.56468C27.6332 5.56468 26.9798 5.90997 26.4988 6.60056L25.197 5.78769C25.9131 4.76819 26.9728 4.25844 28.3762 4.25844V4.25844ZM26.4639 9.92942C26.4629 10.1159 26.5069 10.3 26.5922 10.4662C26.6774 10.6325 26.8015 10.7761 26.9541 10.8852C27.281 11.1402 27.6868 11.2752 28.1026 11.2675C28.7263 11.2665 29.3242 11.0203 29.7652 10.583C30.2548 10.126 30.4996 9.58989 30.4996 8.97455C30.0388 8.61044 29.3962 8.42839 28.5717 8.42839C27.9713 8.42839 27.4707 8.57191 27.0698 8.85894C26.665 9.15023 26.4639 9.50433 26.4639 9.92942V9.92942ZM40.0262 4.51331L35.0908 15.7597H33.565L35.3965 11.8246L32.1512 4.51331H33.7578L36.1034 10.1206H36.1356L38.4169 4.51331H40.0262Z" fill="white"/>
<path d="M12.9569 6.70348C12.9575 6.25686 12.9194 5.81102 12.8431 5.37085H6.6095V7.89503H10.1798C10.1067 8.29818 9.95211 8.68248 9.72522 9.02478C9.49833 9.36707 9.20389 9.66027 8.85964 9.8867V11.5252H10.9904C12.2381 10.3846 12.9569 8.69789 12.9569 6.70348Z" fill="#4285F4"/>
<path d="M6.60979 13.1081C8.39356 13.1081 9.89549 12.5274 10.9907 11.5261L8.85993 9.88761C8.26687 10.2863 7.50305 10.5139 6.60979 10.5139C4.8857 10.5139 3.42232 9.36148 2.89904 7.80856H0.703979V9.49711C1.25414 10.5826 2.09774 11.4951 3.14061 12.1327C4.18348 12.7704 5.38457 13.1081 6.60979 13.1081V13.1081Z" fill="#34A853"/>
<path d="M2.8989 7.80895C2.62226 6.99521 2.62226 6.11399 2.8989 5.30025V3.61169H0.703843C0.241032 4.52484 0 5.53264 0 6.5546C0 7.57656 0.241032 8.58437 0.703843 9.49751L2.8989 7.80895Z" fill="#FBBC04"/>
<path d="M6.60979 2.5947C7.55243 2.57943 8.46327 2.93257 9.14544 3.57779L11.032 1.70719C9.83573 0.593085 8.25091 -0.0185756 6.60979 0.00043C5.38457 0.000485368 4.18348 0.33819 3.14061 0.975841C2.09774 1.61349 1.25414 2.52599 0.703979 3.61147L2.89903 5.30002C3.42232 3.7471 4.88569 2.5947 6.60979 2.5947V2.5947Z" fill="#EA4335"/>
</svg>
