<svg width="120" height="54" viewBox="0 0 120 54" fill="none" xmlns="http://www.w3.org/2000/svg">
<g clip-path="url(#clip0_2901_663)">
<path d="M42.5099 27.0889C42.5099 27.9776 42.2938 28.8664 41.8254 29.7907C41.3571 30.715 40.7807 31.6392 40.1322 32.528C39.4838 33.4167 38.7633 34.3055 38.0428 35.0876C37.3223 35.9052 36.6738 36.6518 36.1334 37.2917C36.6018 38.0026 37.1422 38.9269 37.8266 40.0645C38.5111 41.2377 39.1596 42.4464 39.772 43.7617C40.3844 45.077 40.8888 46.3213 41.3571 47.5655C41.7894 48.8098 42.0056 49.8407 42.0056 50.6583C42.0056 51.3338 41.7894 51.9381 41.3931 52.5069C40.9608 53.0757 40.3844 53.3246 39.6639 53.3246C39.1235 53.3246 38.5471 53.1113 38.0068 52.6491C37.4304 52.187 36.89 51.5826 36.3136 50.8361C35.7372 50.0895 35.1968 49.2719 34.6924 48.3476C34.1881 47.4233 33.7198 46.5346 33.2514 45.6458C32.8191 44.7571 32.4229 43.9394 32.0986 43.1574C31.7744 42.3753 31.4862 41.7354 31.3061 41.2732C30.8738 41.6998 30.4415 42.0198 29.9731 42.3042C29.5048 42.5886 29.0365 42.873 28.6042 43.2285C28.6042 43.9039 28.5682 44.8282 28.5321 46.0369C28.4961 47.2456 28.352 48.4187 28.0998 49.6274C27.8476 50.8005 27.4514 51.8315 26.911 52.6847C26.3706 53.5734 25.542 54 24.4973 54C23.6687 54 23.0203 53.609 22.5519 52.898C22.0836 52.1514 21.7594 51.2627 21.5793 50.2673C21.3631 49.2719 21.255 48.241 21.219 47.21C21.183 46.1791 21.183 45.397 21.183 44.8637C21.183 42.5175 21.255 40.1712 21.3631 37.8249C21.5072 35.4786 21.5793 33.1323 21.6153 30.7861C21.6153 30.2528 21.6153 29.5418 21.6513 28.6531C21.6513 27.7643 21.7234 26.84 21.8314 25.8091C21.9395 24.7782 22.0836 23.7472 22.2637 22.7163C22.4439 21.6853 22.7321 20.7255 23.0923 19.8723C23.4526 19.0191 23.9209 18.3437 24.4613 17.8104C25.0377 17.2772 25.7222 17.0283 26.5147 17.0283C27.0911 17.0283 27.5955 17.2416 27.9917 17.6682C28.388 18.0948 28.7123 18.6281 28.9644 19.3035C29.2166 19.9789 29.3967 20.7255 29.5048 21.5431C29.6129 22.3608 29.6849 23.1784 29.757 23.9961C29.793 24.8137 29.829 25.5602 29.829 26.2712C29.829 26.9822 29.829 27.5155 29.829 27.9421C29.829 28.2265 29.829 28.6531 29.793 29.2219C29.793 29.7907 29.757 30.3595 29.757 30.9638C29.757 31.5681 29.721 32.1369 29.721 32.6346C29.721 33.1323 29.757 33.5234 29.829 33.7367C30.0452 33.7367 30.4054 33.5234 30.8377 33.0968C31.27 32.6702 31.8104 32.1369 32.4229 31.4615C33.0353 30.7861 33.6477 30.0751 34.3682 29.3285C35.0527 28.582 35.7732 27.871 36.4937 27.1955C37.2142 26.5201 37.9347 25.9868 38.6552 25.5602C39.3757 25.1337 40.0242 24.9204 40.6366 24.9204C41.2851 24.9204 41.7894 25.1337 42.1497 25.5958C42.3298 25.9868 42.5099 26.4845 42.5099 27.0889Z" fill="black"/>
<path d="M52.561 35.6563C52.561 36.1185 52.561 36.5806 52.561 37.0783C52.561 37.576 52.561 38.0382 52.525 38.5003C52.4889 39.0336 52.4889 39.7801 52.4889 40.6688C52.4889 41.5576 52.4529 42.553 52.3809 43.5839C52.3088 44.6149 52.2007 45.6813 52.0566 46.7834C51.9125 47.8499 51.6604 48.8453 51.3722 49.734C51.0479 50.6228 50.6156 51.3337 50.0753 51.9025C49.5349 52.4713 48.8864 52.7557 48.0578 52.7913C47.4454 52.8268 46.9411 52.578 46.5088 52.0803C46.0765 51.5826 45.7522 50.9072 45.464 50.0895C45.1758 49.2719 44.9957 48.3831 44.8516 47.3877C44.7075 46.3923 44.6354 45.4325 44.5634 44.4727C44.4913 43.5484 44.4553 42.6596 44.4553 41.8775C44.4553 41.0954 44.4553 40.4911 44.4553 40.1C44.4553 39.6023 44.4553 38.8558 44.4553 37.9315C44.4553 37.0072 44.4913 35.9763 44.5634 34.9098C44.6354 33.8433 44.7435 32.7412 44.9236 31.6392C45.1038 30.5372 45.356 29.5062 45.6802 28.5819C46.0044 27.6576 46.4727 26.9111 47.0131 26.3423C47.5535 25.7735 48.238 25.4891 49.1026 25.4891C49.9672 25.4891 50.6156 25.9157 51.084 26.7689C51.5163 27.6221 51.8765 28.6175 52.0927 29.7551C52.3088 30.8927 52.4529 32.0303 52.4889 33.1678C52.525 34.2699 52.561 35.1231 52.561 35.6563ZM52.1647 19.4457C52.1647 19.9078 52.0566 20.2989 51.8045 20.6543C51.5523 21.0098 51.2641 21.3298 50.8678 21.5786C50.4715 21.863 50.0753 22.0408 49.6069 22.183C49.1386 22.3252 48.7423 22.3963 48.346 22.3963C47.6976 22.3963 47.1212 22.2541 46.6529 21.9341C46.1845 21.6142 45.9324 21.1165 45.9324 20.441C45.9324 19.9789 46.0404 19.5523 46.2926 19.1613C46.5448 18.8058 46.833 18.4858 47.1932 18.2725C47.5535 18.0237 47.9498 17.8459 48.4181 17.7393C48.8864 17.5971 49.3187 17.5615 49.715 17.5615C50.3274 17.5615 50.9038 17.7037 51.4082 17.9881C51.9125 18.2725 52.1647 18.7347 52.1647 19.4457Z" fill="black"/>
<path d="M78.8233 36.9717C78.8233 37.896 78.7512 38.9269 78.6071 40.1C78.463 41.2732 78.2469 42.4463 77.9226 43.655C77.5984 44.8637 77.2021 46.0368 76.6978 47.1744C76.1934 48.312 75.581 49.343 74.8605 50.2317C74.14 51.1204 73.3114 51.867 72.3387 52.4002C71.4021 52.9335 70.2853 53.2179 69.0244 53.2179C67.6915 53.2179 66.5027 52.8979 65.4219 52.3291C64.3411 51.7248 63.4045 50.9071 62.6479 49.8407C62.5399 50.6939 62.1796 51.4404 61.6032 52.1158C60.9908 52.7557 60.2343 53.0757 59.2976 53.0757C58.7572 53.0757 58.2889 52.7913 57.9286 52.258C57.5684 51.7248 57.2442 51.0138 57.028 50.1962C56.8119 49.343 56.6317 48.4187 56.5237 47.4233C56.4156 46.3923 56.3435 45.4325 56.3075 44.4727C56.2715 43.5128 56.2715 42.6596 56.2715 41.9131C56.2715 41.1665 56.2715 40.5977 56.2715 40.2778C56.2715 39.2113 56.2715 38.1093 56.3075 37.0428C56.3075 35.9763 56.3435 34.8742 56.3796 33.7722C56.3796 33.2389 56.3796 32.4213 56.3435 31.3548C56.3435 30.2883 56.3435 29.0796 56.3796 27.7643C56.4156 26.449 56.4876 25.0981 56.5957 23.7116C56.7038 22.3252 56.9199 21.0809 57.2081 19.9078C57.4963 18.7347 57.8926 17.8104 58.433 17.0994C58.9374 16.3528 59.6218 15.9973 60.4144 15.9618C61.0628 15.9618 61.6032 16.1751 62.0715 16.6372C62.5039 17.0994 62.9001 17.6682 63.1883 18.4147C63.4765 19.1613 63.7287 19.9789 63.9088 20.8677C64.089 21.7564 64.197 22.6807 64.3051 23.5694C64.3772 24.4582 64.4492 25.3469 64.4492 26.129C64.4492 26.9466 64.4852 27.5865 64.4852 28.1198C64.4852 28.2264 64.4852 28.4397 64.4492 28.7597C64.4492 29.0796 64.4132 29.4351 64.4132 29.8262C64.4132 30.2172 64.4132 30.5372 64.4132 30.8571C64.4132 31.1771 64.4132 31.3193 64.4132 31.3548C64.7014 30.7505 65.1337 30.1461 65.6741 29.5773C66.2144 29.0085 66.8269 28.5108 67.5114 28.0487C68.1958 27.5865 68.8803 27.231 69.6368 26.9467C70.3934 26.6623 71.0779 26.5201 71.7623 26.5201C73.1313 26.5201 74.2481 26.8756 75.1847 27.551C76.0854 28.2264 76.8419 29.1152 77.3823 30.1461C77.9226 31.1771 78.3189 32.3147 78.5351 33.5589C78.7152 34.7676 78.8233 35.9052 78.8233 36.9717ZM71.7263 38.4292C71.7263 38.0382 71.6903 37.6471 71.6543 37.185C71.6182 36.7228 71.5102 36.3318 71.33 35.9407C71.1499 35.5497 70.8977 35.2297 70.6095 34.9809C70.2853 34.732 69.925 34.5898 69.4207 34.5898C68.9163 34.5898 68.412 34.6965 67.9076 34.9098C67.4033 35.1231 66.935 35.4075 66.4666 35.763C65.9983 36.1185 65.602 36.474 65.2057 36.865C64.8095 37.2561 64.4852 37.6471 64.197 38.0382L63.7287 42.2686C64.2331 43.0151 64.8815 43.5839 65.602 44.0105C66.3586 44.4371 67.1871 44.6504 68.1238 44.6504C68.8443 44.6504 69.4207 44.4371 69.889 43.975C70.3573 43.5128 70.7176 42.9796 71.0058 42.3397C71.294 41.6998 71.4741 40.9888 71.5822 40.2778C71.6543 39.6023 71.7263 38.9624 71.7263 38.4292Z" fill="black"/>
<path d="M102.924 39.0691C102.924 40.811 102.744 42.5529 102.384 44.2593C102.024 45.9657 101.447 47.4943 100.583 48.8452C99.754 50.1961 98.6372 51.2982 97.2322 52.1158C95.8272 52.9335 94.098 53.36 92.0086 53.36C89.9551 53.36 88.2259 52.969 86.857 52.1514C85.488 51.3337 84.3712 50.2672 83.5426 48.9519C82.7141 47.601 82.1377 46.1079 81.8134 44.4371C81.4892 42.7662 81.3091 41.0243 81.3091 39.2824C81.3091 37.3627 81.5252 35.4785 81.9936 33.5944C82.1016 33.0967 82.2818 32.3857 82.5339 31.4614C82.8221 30.5727 83.1464 29.6839 83.5787 28.7952C84.011 27.9065 84.5153 27.1599 85.0917 26.52C85.6681 25.8801 86.2806 25.5602 86.965 25.5602C87.6135 25.5602 88.1178 25.7379 88.5141 26.0934C88.9104 26.4489 89.1986 26.8755 89.4148 27.4088C89.6309 27.942 89.775 28.4753 89.8471 29.0796C89.9191 29.6839 89.9551 30.1816 89.9551 30.6793C89.9551 31.4259 89.8831 32.1369 89.775 32.8123C89.6669 33.5233 89.5589 34.1988 89.4148 34.9098C89.2707 35.8696 89.1626 36.8294 89.0545 37.7537C88.9464 38.7136 88.8744 39.6734 88.8744 40.5977C88.8744 41.0598 88.9104 41.5931 88.9464 42.1974C88.9825 42.8018 89.1266 43.335 89.3067 43.9038C89.4868 44.4371 89.775 44.8992 90.1353 45.2547C90.4955 45.6102 90.9999 45.788 91.6483 45.788C92.4769 45.788 93.1614 45.5747 93.6657 45.1125C94.1701 44.6504 94.5303 44.1171 94.7825 43.4417C95.0347 42.7662 95.1788 42.0552 95.2508 41.3087C95.3229 40.5622 95.3589 39.8512 95.3589 39.2113C95.3589 37.8248 95.2508 36.4384 95.0707 35.0875C94.8906 33.7366 94.7105 32.3502 94.5303 30.9637C94.4943 30.8215 94.4943 30.5727 94.4943 30.2883C94.4943 29.8261 94.5664 29.3284 94.7465 28.8663C94.8906 28.4042 95.1428 27.9776 95.431 27.5865C95.7192 27.1955 96.0794 26.9111 96.4757 26.6622C96.908 26.4134 97.3763 26.3067 97.8807 26.3067C98.6012 26.3067 99.2136 26.5556 99.754 27.0533C100.294 27.551 100.763 28.1909 101.123 28.973C101.483 29.755 101.807 30.6082 102.024 31.6036C102.276 32.5635 102.456 33.5233 102.6 34.4476C102.744 35.3719 102.852 36.2606 102.888 37.0783C102.888 37.967 102.924 38.6069 102.924 39.0691Z" fill="black"/>
<path d="M120 26.4845C120 27.4088 119.676 28.0842 119.064 28.5464C118.451 29.0085 117.731 29.3996 116.974 29.8262C116.218 30.2172 115.497 30.6794 114.885 31.2482C114.272 31.7814 113.948 32.599 113.948 33.6655C113.948 34.2343 114.092 34.732 114.344 35.1586C114.633 35.5852 114.957 35.9407 115.353 36.2607C115.749 36.5806 116.182 36.9361 116.686 37.2916C117.154 37.6471 117.623 38.0382 118.019 38.5003C118.415 38.9624 118.775 39.4957 119.028 40.1356C119.316 40.7755 119.424 41.5576 119.424 42.4819C119.424 43.8328 119.064 45.1125 118.379 46.4279C117.695 47.7077 116.794 48.8453 115.713 49.8762C114.633 50.8716 113.408 51.6892 112.075 52.2936C110.706 52.8979 109.373 53.1823 108.076 53.1823C107.536 53.1823 106.995 53.1468 106.419 53.0757C105.878 53.0046 105.374 52.8624 104.942 52.6135C104.509 52.4002 104.149 52.0803 103.861 51.6892C103.573 51.2982 103.429 50.7649 103.429 50.1251C103.429 49.2363 103.609 48.5609 103.969 48.0632C104.329 47.5655 104.762 47.1744 105.338 46.89C105.878 46.6056 106.455 46.3923 107.103 46.2146C107.716 46.0724 108.328 45.8591 108.869 45.6102C109.409 45.3614 109.877 45.077 110.237 44.6859C110.598 44.2949 110.778 43.7617 110.778 43.0507C110.778 42.3752 110.526 41.6998 109.985 40.9888C109.445 40.2778 108.869 39.4957 108.22 38.7136C107.572 37.896 106.995 37.0428 106.455 36.1185C105.914 35.1942 105.662 34.1988 105.662 33.0612C105.662 31.7103 105.95 30.4305 106.491 29.2574C107.067 28.0842 107.824 27.0888 108.76 26.2356C109.697 25.3825 110.814 24.707 112.003 24.2093C113.228 23.7116 114.524 23.4628 115.857 23.4628C116.362 23.4628 116.866 23.4983 117.37 23.605C117.875 23.7116 118.307 23.8538 118.703 24.1027C119.1 24.3515 119.388 24.6715 119.64 25.0625C119.892 25.3825 120 25.9157 120 26.4845Z" fill="black"/>
<path d="M41.429 12.9401C45.0501 12.9401 47.9856 10.0434 47.9856 6.47005C47.9856 2.89674 45.0501 0 41.429 0C37.8079 0 34.8724 2.89674 34.8724 6.47005C34.8724 10.0434 37.8079 12.9401 41.429 12.9401Z" fill="black"/>
<path d="M25.0736 14.2199C28.6947 14.2199 31.6301 11.3231 31.6301 7.74983C31.6301 4.17652 28.6947 1.27979 25.0736 1.27979C21.4525 1.27979 18.517 4.17652 18.517 7.74983C18.517 11.3231 21.4525 14.2199 25.0736 14.2199Z" fill="black"/>
<path d="M11.9604 23.3561C15.5815 23.3561 18.517 20.4594 18.517 16.8861C18.517 13.3128 15.5815 10.416 11.9604 10.416C8.33929 10.416 5.40381 13.3128 5.40381 16.8861C5.40381 20.4594 8.33929 23.3561 11.9604 23.3561Z" fill="black"/>
<path d="M6.55659 37.9671C10.1777 37.9671 13.1132 35.0703 13.1132 31.497C13.1132 27.9237 10.1777 25.027 6.55659 25.027C2.93549 25.027 0 27.9237 0 31.497C0 35.0703 2.93549 37.9671 6.55659 37.9671Z" fill="black"/>
</g>
<defs>
<clipPath id="clip0_2901_663">
<rect width="120" height="54" fill="white"/>
</clipPath>
</defs>
</svg>
