<svg width="72" height="32" viewBox="0 0 72 32" fill="none" xmlns="http://www.w3.org/2000/svg">
<g clip-path="url(#clip0_2901_854)">
<path d="M25.5057 16.0526C25.5057 16.5793 25.376 17.106 25.095 17.6537C24.8141 18.2014 24.4682 18.7491 24.0791 19.2758C23.6901 19.8025 23.2578 20.3291 22.8255 20.7926C22.3932 21.2771 22.0041 21.7195 21.6799 22.0987C21.9609 22.52 22.2851 23.0678 22.6958 23.7419C23.1065 24.4371 23.4955 25.1534 23.863 25.9328C24.2304 26.7123 24.5331 27.4496 24.8141 28.1869C25.0734 28.9243 25.2031 29.5352 25.2031 30.0197C25.2031 30.42 25.0734 30.7781 24.8357 31.1152C24.5763 31.4522 24.2304 31.5997 23.7981 31.5997C23.4739 31.5997 23.1281 31.4733 22.8038 31.1994C22.458 30.9256 22.1338 30.5674 21.7879 30.1251C21.4421 29.6827 21.1179 29.1981 20.8153 28.6504C20.5126 28.1027 20.2317 27.576 19.9507 27.0493C19.6913 26.5227 19.4535 26.0382 19.259 25.5747C19.0644 25.1112 18.8915 24.732 18.7834 24.4582C18.5241 24.711 18.2647 24.9006 17.9837 25.0691C17.7027 25.2376 17.4217 25.4062 17.1623 25.6168C17.1623 26.0171 17.1407 26.5648 17.1191 27.2811C17.0975 27.9973 17.011 28.6925 16.8597 29.4088C16.7084 30.104 16.4706 30.7149 16.1464 31.2205C15.8222 31.7472 15.325 32 14.6982 32C14.201 32 13.812 31.7682 13.531 31.3469C13.25 30.9045 13.0554 30.3778 12.9474 29.788C12.8177 29.1981 12.7528 28.5872 12.7312 27.9763C12.7096 27.3653 12.7096 26.9019 12.7096 26.5859C12.7096 25.1955 12.7528 23.8051 12.8177 22.4147C12.9041 21.0243 12.9474 19.6339 12.969 18.2436C12.969 17.9276 12.969 17.5062 12.9906 16.9796C12.9906 16.4529 13.0338 15.9052 13.0987 15.2942C13.1635 14.6833 13.25 14.0724 13.358 13.4615C13.4661 12.8505 13.639 12.2817 13.8552 11.7761C14.0713 11.2705 14.3523 10.8703 14.6766 10.5543C15.0224 10.2383 15.4331 10.0908 15.9086 10.0908C16.2545 10.0908 16.5571 10.2172 16.7948 10.47C17.0326 10.7228 17.2272 11.0388 17.3785 11.4391C17.5298 11.8393 17.6378 12.2817 17.7027 12.7663C17.7675 13.2508 17.8108 13.7353 17.854 14.2199C17.8756 14.7044 17.8972 15.1468 17.8972 15.5681C17.8972 15.9894 17.8972 16.3054 17.8972 16.5582C17.8972 16.7268 17.8972 16.9796 17.8756 17.3166C17.8756 17.6537 17.854 17.9908 17.854 18.3489C17.854 18.707 17.8324 19.0441 17.8324 19.339C17.8324 19.6339 17.854 19.8657 17.8972 19.9921C18.0269 19.9921 18.2431 19.8657 18.5024 19.6129C18.7618 19.3601 19.0861 19.0441 19.4535 18.6438C19.821 18.2436 20.1884 17.8222 20.6207 17.3798C21.0314 16.9374 21.4637 16.5161 21.896 16.1158C22.3283 15.7156 22.7606 15.3996 23.1929 15.1468C23.6252 14.894 24.0143 14.7676 24.3818 14.7676C24.7708 14.7676 25.0734 14.894 25.2896 15.1678C25.3977 15.3996 25.5057 15.6945 25.5057 16.0526Z" fill="black"/>
<path d="M31.5363 21.1297C31.5363 21.4036 31.5363 21.6774 31.5363 21.9724C31.5363 22.2673 31.5363 22.5412 31.5146 22.815C31.493 23.131 31.493 23.5734 31.493 24.1001C31.493 24.6267 31.4714 25.2166 31.4282 25.8275C31.3849 26.4385 31.3201 27.0705 31.2336 27.7235C31.1472 28.3555 30.9959 28.9454 30.823 29.472C30.6284 29.9987 30.369 30.42 30.0448 30.7571C29.7206 31.0942 29.3315 31.2627 28.8344 31.2838C28.4669 31.3048 28.1643 31.1574 27.9049 30.8624C27.6455 30.5675 27.451 30.1672 27.2781 29.6827C27.1052 29.1982 26.9971 28.6715 26.9106 28.0816C26.8242 27.4918 26.7809 26.923 26.7377 26.3542C26.6945 25.8065 26.6729 25.2798 26.6729 24.8163C26.6729 24.3529 26.6729 23.9947 26.6729 23.763C26.6729 23.4681 26.6729 23.0257 26.6729 22.478C26.6729 21.9302 26.6945 21.3193 26.7377 20.6873C26.7809 20.0553 26.8458 19.4023 26.9538 18.7492C27.0619 18.0961 27.2132 17.4852 27.4078 16.9375C27.6023 16.3897 27.8833 15.9473 28.2075 15.6103C28.5318 15.2732 28.9424 15.1047 29.4612 15.1047C29.98 15.1047 30.369 15.3575 30.65 15.8631C30.9094 16.3687 31.1256 16.9585 31.2553 17.6327C31.3849 18.3068 31.4714 18.9809 31.493 19.6551C31.5146 20.3081 31.5363 20.8137 31.5363 21.1297ZM31.2985 11.5234C31.2985 11.7972 31.2336 12.029 31.0823 12.2396C30.931 12.4503 30.7581 12.6399 30.5203 12.7874C30.2826 12.9559 30.0448 13.0612 29.7638 13.1455C29.4828 13.2298 29.245 13.2719 29.0073 13.2719C28.6182 13.2719 28.2724 13.1876 27.9914 12.998C27.7104 12.8084 27.5591 12.5135 27.5591 12.1132C27.5591 11.8394 27.6239 11.5866 27.7752 11.3549C27.9265 11.1442 28.0994 10.9546 28.3156 10.8282C28.5318 10.6807 28.7695 10.5754 29.0505 10.5122C29.3315 10.4279 29.5909 10.4069 29.8287 10.4069C30.1961 10.4069 30.542 10.4911 30.8446 10.6597C31.1472 10.8282 31.2985 11.1021 31.2985 11.5234Z" fill="black"/>
<path d="M47.2938 21.9092C47.2938 22.4569 47.2505 23.0678 47.1641 23.763C47.0776 24.4582 46.9479 25.1534 46.7534 25.8697C46.5588 26.5859 46.3211 27.2811 46.0185 27.9552C45.7158 28.6294 45.3484 29.2403 44.9161 29.767C44.4838 30.2936 43.9866 30.736 43.403 31.052C42.841 31.368 42.171 31.5365 41.4144 31.5365C40.6147 31.5365 39.9014 31.347 39.2529 31.0099C38.6045 30.6518 38.0425 30.1672 37.5886 29.5352C37.5237 30.0408 37.3076 30.4832 36.9617 30.8835C36.5943 31.2627 36.1404 31.4523 35.5784 31.4523C35.2541 31.4523 34.9731 31.2838 34.757 30.9678C34.5408 30.6518 34.3463 30.2304 34.2166 29.7459C34.0869 29.2403 33.9788 28.6926 33.914 28.1027C33.8492 27.4918 33.8059 26.923 33.7843 26.3542C33.7627 25.7854 33.7627 25.2798 33.7627 24.8374C33.7627 24.395 33.7627 24.0579 33.7627 23.8683C33.7627 23.2364 33.7627 22.5833 33.7843 21.9513C33.7843 21.3193 33.8059 20.6662 33.8275 20.0132C33.8275 19.6972 33.8275 19.2126 33.8059 18.5807C33.8059 17.9487 33.8059 17.2324 33.8275 16.4529C33.8492 15.6735 33.8924 14.873 33.9572 14.0514C34.0221 13.2298 34.1518 12.4924 34.3247 11.7972C34.4976 11.102 34.7354 10.5543 35.0596 10.133C35.3622 9.69059 35.7729 9.47993 36.2484 9.45886C36.6375 9.45886 36.9617 9.58526 37.2427 9.85913C37.5021 10.133 37.7399 10.4701 37.9128 10.9125C38.0857 11.3548 38.237 11.8394 38.3451 12.366C38.4532 12.8927 38.518 13.4404 38.5829 13.9671C38.6261 14.4938 38.6693 15.0204 38.6693 15.4839C38.6693 15.9684 38.6909 16.3476 38.6909 16.6636C38.6909 16.7268 38.6909 16.8532 38.6693 17.0428C38.6693 17.2324 38.6477 17.4431 38.6477 17.6748C38.6477 17.9065 38.6477 18.0961 38.6477 18.2857C38.6477 18.4753 38.6477 18.5596 38.6477 18.5807C38.8206 18.2225 39.08 17.8644 39.4042 17.5273C39.7285 17.1903 40.0959 16.8953 40.5066 16.6215C40.9173 16.3476 41.328 16.1369 41.7819 15.9684C42.2358 15.7999 42.6465 15.7156 43.0572 15.7156C43.8786 15.7156 44.5486 15.9263 45.1106 16.3265C45.651 16.7268 46.1049 17.2535 46.4292 17.8644C46.7534 18.4753 46.9911 19.1495 47.1208 19.8868C47.2289 20.603 47.2938 21.2772 47.2938 21.9092ZM43.0356 22.7729C43.0356 22.5412 43.014 22.3094 42.9923 22.0356C42.9707 21.7617 42.9059 21.53 42.7978 21.2982C42.6897 21.0665 42.5384 20.8769 42.3655 20.7294C42.171 20.582 41.9548 20.4977 41.6522 20.4977C41.3496 20.4977 41.047 20.5609 40.7444 20.6873C40.4418 20.8137 40.1608 20.9822 39.8798 21.1929C39.5988 21.4036 39.361 21.6142 39.1232 21.846C38.8855 22.0777 38.6909 22.3094 38.518 22.5412L38.237 25.0481C38.5396 25.4905 38.9287 25.8275 39.361 26.0803C39.8149 26.3331 40.3121 26.4595 40.8741 26.4595C41.3064 26.4595 41.6522 26.3331 41.9332 26.0593C42.2142 25.7854 42.4304 25.4694 42.6033 25.0902C42.7762 24.711 42.8843 24.2897 42.9491 23.8683C42.9923 23.4681 43.0356 23.0889 43.0356 22.7729Z" fill="black"/>
<path d="M61.7545 23.1521C61.7545 24.1844 61.6464 25.2166 61.4302 26.2278C61.2141 27.239 60.8683 28.1449 60.3495 28.9454C59.8523 29.7459 59.1823 30.399 58.3393 30.8835C57.4963 31.3681 56.4588 31.6209 55.2051 31.6209C53.973 31.6209 52.9355 31.3891 52.1141 30.9046C51.2928 30.4201 50.6227 29.7881 50.1255 29.0086C49.6284 28.2081 49.2826 27.3233 49.088 26.3332C48.8935 25.343 48.7854 24.3108 48.7854 23.2785C48.7854 22.1409 48.9151 21.0244 49.1961 19.9079C49.2609 19.6129 49.369 19.1916 49.5203 18.6439C49.6932 18.1172 49.8878 17.5906 50.1472 17.0639C50.4065 16.5372 50.7091 16.0948 51.055 15.7156C51.4008 15.3364 51.7683 15.1469 52.179 15.1469C52.568 15.1469 52.8707 15.2522 53.1084 15.4628C53.3462 15.6735 53.5191 15.9263 53.6488 16.2423C53.7785 16.5583 53.865 16.8743 53.9082 17.2324C53.9514 17.5906 53.973 17.8855 53.973 18.1804C53.973 18.6228 53.9298 19.0442 53.865 19.4444C53.8001 19.8657 53.7353 20.266 53.6488 20.6873C53.5623 21.2561 53.4975 21.8249 53.4327 22.3727C53.3678 22.9415 53.3246 23.5102 53.3246 24.058C53.3246 24.3318 53.3462 24.6478 53.3678 25.006C53.3894 25.3641 53.4759 25.6801 53.584 26.0172C53.692 26.3332 53.865 26.607 54.0811 26.8177C54.2973 27.0284 54.5999 27.1337 54.9889 27.1337C55.4861 27.1337 55.8968 27.0073 56.1994 26.7334C56.502 26.4596 56.7182 26.1436 56.8695 25.7433C57.0208 25.343 57.1072 24.9217 57.1505 24.4793C57.1937 24.0369 57.2153 23.6156 57.2153 23.2364C57.2153 22.4148 57.1505 21.5932 57.0424 20.7927C56.9343 19.9921 56.8262 19.1706 56.7181 18.349C56.6965 18.2647 56.6965 18.1172 56.6965 17.9487C56.6965 17.6748 56.7398 17.3799 56.8478 17.106C56.9343 16.8322 57.0856 16.5794 57.2585 16.3476C57.4314 16.1159 57.6476 15.9474 57.8854 15.7999C58.1447 15.6524 58.4257 15.5892 58.7284 15.5892C59.1607 15.5892 59.5281 15.7367 59.8523 16.0316C60.1766 16.3266 60.4576 16.7058 60.6737 17.1692C60.8899 17.6327 61.0844 18.1383 61.2141 18.7282C61.3654 19.2969 61.4735 19.8657 61.5599 20.4135C61.6464 20.9612 61.7112 21.4879 61.7329 21.9724C61.7329 22.4991 61.7545 22.8783 61.7545 23.1521Z" fill="black"/>
<path d="M71.9999 15.6946C71.9999 16.2423 71.8054 16.6426 71.438 16.9164C71.0705 17.1903 70.6382 17.422 70.1843 17.6748C69.7304 17.9066 69.2981 18.1804 68.9306 18.5175C68.5631 18.8335 68.3686 19.318 68.3686 19.95C68.3686 20.2871 68.4551 20.582 68.6064 20.8348C68.7793 21.0876 68.9738 21.2983 69.2116 21.4879C69.4494 21.6775 69.7087 21.8881 70.0114 22.0988C70.2924 22.3095 70.5734 22.5412 70.8111 22.8151C71.0489 23.0889 71.265 23.4049 71.4163 23.7841C71.5893 24.1633 71.6541 24.6268 71.6541 25.1745C71.6541 25.975 71.438 26.7334 71.0273 27.5129C70.6166 28.2713 70.0762 28.9454 69.4278 29.5563C68.7793 30.1462 68.0444 30.6307 67.2446 30.9889C66.4233 31.347 65.6235 31.5155 64.8454 31.5155C64.5211 31.5155 64.1969 31.4945 63.8511 31.4523C63.5268 31.4102 63.2242 31.3259 62.9648 31.1785C62.7055 31.0521 62.4893 30.8625 62.3164 30.6307C62.1435 30.399 62.057 30.083 62.057 29.7038C62.057 29.1771 62.1651 28.7769 62.3812 28.4819C62.5974 28.187 62.8568 27.9553 63.2026 27.7868C63.5268 27.6182 63.8727 27.4918 64.2617 27.3865C64.6292 27.3022 64.9967 27.1758 65.3209 27.0284C65.6451 26.8809 65.9261 26.7124 66.1423 26.4806C66.3584 26.2489 66.4665 25.9329 66.4665 25.5116C66.4665 25.1113 66.3152 24.711 65.9909 24.2897C65.6667 23.8684 65.3209 23.4049 64.9318 22.9415C64.5427 22.4569 64.1969 21.9513 63.8727 21.4036C63.5484 20.8559 63.3971 20.266 63.3971 19.5919C63.3971 18.7914 63.5701 18.033 63.8943 17.3378C64.2401 16.6426 64.694 16.0527 65.256 15.5471C65.818 15.0415 66.4881 14.6413 67.2014 14.3463C67.9363 14.0514 68.7145 13.9039 69.5142 13.9039C69.8168 13.9039 70.1194 13.925 70.422 13.9882C70.7247 14.0514 70.984 14.1357 71.2218 14.2831C71.4596 14.4306 71.6325 14.6202 71.7838 14.8519C71.9351 15.0415 71.9999 15.3575 71.9999 15.6946Z" fill="black"/>
<path d="M24.8574 7.6682C27.0301 7.6682 28.7914 5.95162 28.7914 3.8341C28.7914 1.71659 27.0301 0 24.8574 0C22.6848 0 20.9235 1.71659 20.9235 3.8341C20.9235 5.95162 22.6848 7.6682 24.8574 7.6682Z" fill="black"/>
<path d="M15.0441 8.42663C17.2167 8.42663 18.978 6.71004 18.978 4.59252C18.978 2.47501 17.2167 0.758423 15.0441 0.758423C12.8714 0.758423 11.1101 2.47501 11.1101 4.59252C11.1101 6.71004 12.8714 8.42663 15.0441 8.42663Z" fill="black"/>
<path d="M7.17626 13.8407C9.34892 13.8407 11.1102 12.1241 11.1102 10.0066C11.1102 7.88907 9.34892 6.17249 7.17626 6.17249C5.0036 6.17249 3.24231 7.88907 3.24231 10.0066C3.24231 12.1241 5.0036 13.8407 7.17626 13.8407Z" fill="black"/>
<path d="M3.93395 22.499C6.10661 22.499 7.8679 20.7824 7.8679 18.6649C7.8679 16.5474 6.10661 14.8308 3.93395 14.8308C1.76129 14.8308 0 16.5474 0 18.6649C0 20.7824 1.76129 22.499 3.93395 22.499Z" fill="black"/>
</g>
<defs>
<clipPath id="clip0_2901_854">
<rect width="72" height="32" fill="white"/>
</clipPath>
</defs>
</svg>
