<svg width="30" height="18" viewBox="0 0 30 18" fill="none" xmlns="http://www.w3.org/2000/svg">
<path d="M18.6496 1.91495H10.7102V15.9969H18.6496V1.91495Z" fill="#FF5F00"/>
<path d="M11.2146 8.95749C11.2131 7.60111 11.5244 6.26218 12.1248 5.04209C12.7253 3.822 13.5991 2.75275 14.6802 1.91529C13.3416 0.877048 11.7341 0.231427 10.0413 0.0522157C8.34857 -0.126996 6.63886 0.167432 5.10762 0.90185C3.57638 1.63627 2.28538 2.78104 1.38218 4.20534C0.478974 5.62964 0 7.276 0 8.95625C0 10.6365 0.478974 12.2829 1.38218 13.7072C2.28538 15.1315 3.57638 16.2762 5.10762 17.0107C6.63886 17.7451 8.34857 18.0395 10.0413 17.8603C11.7341 17.6811 13.3416 17.0355 14.6802 15.9972C13.5994 15.16 12.7258 14.0912 12.1254 12.8715C11.525 11.6519 11.2135 10.3135 11.2146 8.95749V8.95749Z" fill="#EB001B"/>
<path d="M29.3617 8.95731C29.3617 10.6377 28.8826 12.2841 27.9792 13.7085C27.0759 15.1328 25.7847 16.2776 24.2532 17.0119C22.7218 17.7462 21.0119 18.0405 19.3191 17.861C17.6262 17.6815 16.0187 17.0356 14.6802 15.997C15.7605 15.1591 16.6339 14.0899 17.2345 12.8702C17.835 11.6505 18.1471 10.3122 18.1471 8.95607C18.1471 7.59997 17.835 6.26159 17.2345 5.04189C16.6339 3.8222 15.7605 2.75305 14.6802 1.9151C16.0187 0.876539 17.6262 0.230604 19.3191 0.0511346C21.0119 -0.128334 22.7218 0.165904 24.2532 0.900218C25.7847 1.63453 27.0759 2.77929 27.9792 4.20364C28.8826 5.62798 29.3617 7.27445 29.3617 8.95482V8.95731Z" fill="#F79E1B"/>
</svg>
