<svg width="42" height="41" viewBox="0 0 42 41" fill="none" xmlns="http://www.w3.org/2000/svg">
<path d="M1.31213 9.84375V26.3007C1.31213 30.0177 4.35888 33.0312 8.11788 33.0312H25.1314C28.8904 33.0312 31.9371 31.3302 31.9371 27.6132V10.0625L1.31213 9.84375Z" fill="#F3F3F1"/>
<path d="M28.026 13.5625H5.00827C3.15852 13.5625 1.48202 12.215 1.32452 10.3722C1.23177 9.289 1.62727 8.29325 2.34302 7.595C2.97477 6.9475 3.84977 6.5625 4.81227 6.5625H28.026C29.9685 6.5625 31.54 8.14625 31.526 10.0887C31.512 12.012 29.9492 13.5625 28.026 13.5625Z" fill="#EE7333"/>
<path d="M30.6247 21.4375C36.1821 21.4375 40.6872 16.9324 40.6872 11.375C40.6872 5.81763 36.1821 1.3125 30.6247 1.3125C25.0674 1.3125 20.5623 5.81763 20.5623 11.375C20.5623 16.9324 25.0674 21.4375 30.6247 21.4375Z" fill="#EE7333"/>
<path d="M32.3747 21.28C31.8147 21.385 31.2197 21.4375 30.6247 21.4375C25.0598 21.4375 20.5623 16.94 20.5623 11.375C20.5623 5.81 25.0598 1.3125 30.6247 1.3125C31.2197 1.3125 31.8147 1.365 32.3747 1.47C27.6497 2.2925 24.0623 6.405 24.0623 11.375C24.0623 16.345 27.6497 20.4575 32.3747 21.28Z" fill="#C95518"/>
<path d="M11.6196 33.0401H8.11963C4.35713 33.0401 1.31213 30.0126 1.31213 26.3026V9.83508L4.81213 9.85258V26.3026C4.81213 30.0126 7.85713 33.0401 11.6196 33.0401Z" fill="#D5DBE1"/>
<path d="M8.50511 13.5625H5.00511C3.16761 13.5625 1.48761 12.215 1.33011 10.3775C1.22511 9.2925 1.62761 8.295 2.34511 7.595C2.97511 6.9475 3.85011 6.5625 4.81261 6.5625H8.31261C7.35011 6.5625 6.47511 6.9475 5.84511 7.595C5.12761 8.295 4.72511 9.2925 4.83011 10.3775C4.98761 12.215 6.66761 13.5625 8.50511 13.5625Z" fill="#C95518"/>
<path d="M25.1317 34.3437H8.11649C3.64175 34.3437 0 30.7352 0 26.3007V9.84375H2.625V26.3007C2.625 29.288 5.089 31.7187 8.11824 31.7187H25.1335C26.7855 31.7187 30.6267 31.318 30.6267 27.6132H33.25C33.25 31.7012 30.0632 34.3437 25.1317 34.3437Z" fill="black"/>
<path d="M14.4375 14.875H4.8125C2.1595 14.875 0 12.7172 0 10.0625C0 8.76225 0.507499 7.553 1.428 6.65525C2.303 5.7575 3.51225 5.25 4.8125 5.25H14.49V7.875H4.8125C4.228 7.875 3.68375 8.10075 3.28475 8.51025C2.85075 8.93375 2.625 9.478 2.625 10.0625C2.625 11.2682 3.60675 12.25 4.8125 12.25H14.4375V14.875Z" fill="black"/>
<path d="M6.99976 33.6875H9.62475V40.6875H6.99976V33.6875Z" fill="black"/>
<path d="M23.625 33.6875H26.25V40.6875H23.625V33.6875Z" fill="black"/>
<path d="M30.6251 22.75C24.3531 22.75 19.2501 17.647 19.2501 11.375C19.2501 5.10299 24.3531 0 30.6251 0C36.8971 0 42.0001 5.10299 42.0001 11.375C42.0001 17.647 36.8971 22.75 30.6251 22.75ZM30.6251 2.625C25.8004 2.625 21.8751 6.55024 21.8751 11.375C21.8751 16.1997 25.8004 20.125 30.6251 20.125C35.4499 20.125 39.3751 16.1997 39.3751 11.375C39.3751 6.55024 35.4499 2.625 30.6251 2.625Z" fill="black"/>
<path d="M32.8996 15.925L29.3996 13.3C29.0706 13.0515 28.8746 12.663 28.8746 12.25V6.5625H31.4996V11.5937L34.4746 13.825L32.8996 15.925Z" fill="black"/>
</svg>
