<svg width="40" height="12" viewBox="0 0 40 12" fill="none" xmlns="http://www.w3.org/2000/svg">
<path d="M17.3402 11.8H14.0763L16.1162 0.207148H19.3804L17.3402 11.8ZM11.3305 0.207148L8.21889 8.18079L7.85068 6.46376L7.85102 6.46438L6.75277 1.25095C6.75277 1.25095 6.61998 0.207148 5.2045 0.207148H0.0603616L0 0.403442C0 0.403442 1.57309 0.7061 3.41411 1.72851L6.24976 11.8003H9.65046L14.8432 0.207148H11.3305V0.207148ZM37.0026 11.8H39.9995L37.3866 0.206838H34.7628C33.5513 0.206838 33.2562 1.07078 33.2562 1.07078L28.3883 11.8H31.7907L32.4711 10.078H36.6203L37.0026 11.8ZM33.4111 7.6992L35.126 3.36088L36.0908 7.6992H33.4111ZM28.6435 2.99496L29.1093 0.505465C29.1093 0.505465 27.672 0 26.1737 0C24.554 0 20.7077 0.654624 20.7077 3.83782C20.7077 6.83278 25.222 6.86999 25.222 8.44313C25.222 10.0163 21.1728 9.7344 19.8365 8.74238L19.3512 11.3454C19.3512 11.3454 20.8086 12 23.0353 12C25.2626 12 28.6227 10.9336 28.6227 8.03101C28.6227 5.01682 24.0678 4.73618 24.0678 3.42569C24.0681 2.11489 27.2468 2.28328 28.6435 2.99496V2.99496Z" fill="#2566AF"/>
</svg>
