<svg width="28" height="22" viewBox="0 0 28 22" fill="none" xmlns="http://www.w3.org/2000/svg">
<path d="M26.4557 4.13066C26.3153 3.5167 26.0294 2.95417 25.6269 2.49988C25.2244 2.04559 24.7194 1.71563 24.1631 1.54334C22.1305 1 14 1 14 1C14 1 5.86951 1 3.83689 1.59508C3.28058 1.76738 2.77565 2.09734 2.3731 2.55163C1.97056 3.00591 1.68466 3.56845 1.54428 4.18241C1.17228 6.44056 0.990319 8.73132 1.00068 11.0259C0.987415 13.3377 1.16939 15.6459 1.54428 17.9211C1.69905 18.516 1.99135 19.0571 2.39296 19.4922C2.79456 19.9273 3.29189 20.2417 3.83689 20.4049C5.86951 21 14 21 14 21C14 21 22.1305 21 24.1631 20.4049C24.7194 20.2326 25.2244 19.9027 25.6269 19.4484C26.0294 18.9941 26.3153 18.4316 26.4557 17.8176C26.8249 15.5764 27.0068 13.3031 26.9993 11.0259C27.0126 8.71404 26.8306 6.40582 26.4557 4.13066V4.13066Z" stroke="white" stroke-width="1.5" stroke-linecap="round" stroke-linejoin="round"/>
<path d="M11 15L18 11L11 7V15Z" stroke="white" stroke-width="1.5" stroke-linecap="round" stroke-linejoin="round"/>
</svg>
