<svg width="47" height="27" viewBox="0 0 47 27" fill="none" xmlns="http://www.w3.org/2000/svg">
<path d="M20.1622 2.40308C23.3641 1.92462 26.4809 2.0632 28.9202 2.65594C31.6805 3.32666 33.5806 4.62207 34.2272 6.29651C34.8739 7.97095 34.1271 9.66186 32.1579 11.0393C30.4176 12.2566 27.7421 13.2607 24.5401 13.7392C21.3382 14.2176 18.2214 14.079 15.7821 13.4863C13.0218 12.8156 11.1218 11.5202 10.4751 9.84572C9.82842 8.17129 10.5752 6.48037 12.5444 5.10293C14.2847 3.88564 16.9602 2.88154 20.1622 2.40308ZM29.3157 4.01984C26.8982 3.43239 23.8384 3.31638 20.6962 3.78591C17.554 4.25544 14.9129 5.22331 13.1882 6.42972C12.4539 6.9433 11.8778 7.48205 11.5266 8.02055C11.1801 8.55191 11.0164 9.14178 11.2439 9.73084C11.4714 10.3199 12.048 10.7991 12.7447 11.1746C13.4508 11.5552 14.3575 11.8723 15.3867 12.1224C17.8041 12.7098 20.8639 12.8259 24.0061 12.3563C27.1483 11.8868 29.7894 10.9189 31.5142 9.71251C32.2484 9.19894 32.8246 8.66019 33.1757 8.12169C33.5222 7.59032 33.6859 7.00046 33.4584 6.4114C33.2309 5.82233 32.6543 5.34309 31.9576 4.9676C31.2515 4.58708 30.3448 4.26991 29.3157 4.01984Z" stroke="#EE7333" stroke-opacity="0.15"/>
<path d="M10.7694 19.9115L9.14693 8.50407L9.98093 8.68469L11.6028 20.0876L11.6135 20.1634L11.6526 20.2363C11.9723 20.8327 12.6649 21.299 13.4808 21.6608C14.3147 22.0306 15.3785 22.3365 16.5924 22.5749L16.6187 22.141L16.5924 22.5749C19.5125 23.1483 23.2473 23.2079 27.1173 22.6381C30.9872 22.0683 34.2707 20.9754 36.4479 19.6514L36.1406 19.3132L36.4479 19.6514C37.353 19.101 38.0744 18.5323 38.5435 17.9707C39.0026 17.4211 39.2744 16.8128 39.1177 16.1924L39.0985 16.1166L39.052 16.0461L32.0541 5.43475L32.6635 5.04157L39.6643 15.6572L39.8064 15.9279C40.4616 17.64 39.4984 19.4244 37.0512 20.9126C34.864 22.2427 31.5508 23.3645 27.6279 23.9421C23.705 24.5197 19.9224 24.4426 16.9888 23.8665C13.7065 23.2219 11.5272 21.9002 10.8432 20.1923L10.7694 19.9115Z" stroke="#EE7333" stroke-opacity="0.15"/>
<path d="M18.2158 13.2176L18.2102 13.2185C17.759 13.2869 17.3943 13.5884 17.2127 14.1056L17.2126 14.1057C17.0306 14.6238 17.0505 15.324 17.346 16.0787C17.4808 16.4232 17.6665 16.7516 17.8874 17.0515L18.2158 13.2176ZM18.2158 13.2176C18.6073 13.16 19.0711 13.2779 19.5496 13.5821L18.2158 13.2176ZM20.5526 14.5079L20.322 14.2485L20.5526 14.5079ZM20.5526 14.5079L20.883 14.4593M20.5526 14.5079L20.883 14.4593M20.883 14.4593L26.3277 13.6577L26.6618 13.6085M20.883 14.4593L26.6618 13.6085M26.6618 13.6085L26.6717 13.3092M26.6618 13.6085L26.6717 13.3092M26.6717 13.3092C26.682 12.9942 26.7478 12.7179 26.8608 12.491L26.8608 12.491M26.6717 13.3092L26.8608 12.491M26.8608 12.491C27.0548 12.101 27.3724 11.8695 27.7912 11.8079C28.1777 11.751 28.7173 11.938 29.288 12.3678L29.586 12.0553M26.8608 12.491L29.586 12.0553M29.586 12.0553L29.288 12.3678C29.8962 12.8257 30.4494 13.5142 30.6846 14.1149C30.9231 14.7242 30.9876 15.0652 30.9856 15.3154L30.9844 15.4736M29.586 12.0553L30.9844 15.4736M30.9844 15.4736L31.1026 15.6142C31.2897 15.8366 31.4846 16.1583 31.7232 16.7677C31.9599 17.3721 31.9879 18.1479 31.7846 18.7269L30.9844 15.4736ZM29.8533 15.6592L29.8542 15.6568L30.4385 16.1162L30.446 16.1221C30.5192 16.1796 30.631 16.2674 30.7349 16.4031C30.8364 16.5355 30.9124 16.6884 30.9859 16.8762C31.0958 17.1568 31.0545 17.4937 30.964 17.7516C30.9244 17.8643 30.8661 17.9824 30.7801 18.0823C30.6972 18.1787 30.5587 18.292 30.3425 18.3238C29.9695 18.3787 29.6008 18.238 29.3246 18.0344L29.3246 18.0344C29.0499 17.8319 28.8338 17.552 28.708 17.2476M29.8533 15.6592L28.752 16.1044M29.8533 15.6592L29.8332 15.6434L29.95 15.2723L29.9532 15.2719L30.0214 15.0555C30.0224 15.0526 30.0233 15.0495 30.0243 15.0464C30.0468 14.9755 30.0814 14.8662 30.0741 14.7174C30.0668 14.5704 30.0212 14.4123 29.9472 14.2234C29.8867 14.0688 29.7729 13.9246 29.669 13.8128C29.5578 13.6932 29.4231 13.5738 29.2789 13.4653C29.1594 13.3752 29.0217 13.2856 28.8772 13.2188C28.7472 13.1587 28.5301 13.0792 28.3022 13.1128C27.9808 13.1601 27.7518 13.3237 27.637 13.5543L29.8533 15.6592ZM28.708 17.2476L29.1915 17.1678L28.708 17.2476L28.708 17.2476ZM28.708 17.2476L28.4463 16.6145M28.4463 16.6145L28.9241 16.5441L28.752 16.1044M28.4463 16.6145L28.0939 16.6664L21.5433 17.6308L21.1909 17.6827M28.4463 16.6145L28.2685 16.1842L28.752 16.1044M28.752 16.1044L21.1909 17.6827M21.1909 17.6827L21.0308 17.2498L20.5409 17.3133L20.7131 17.753L21.1909 17.6827ZM21.1909 17.6827L21.4265 18.3195M21.1909 17.6827L19.0143 18.1826C19.0251 18.3229 19.0628 18.4717 19.122 18.6229C19.2441 18.9349 19.4603 19.2215 19.7357 19.429L20.0337 19.1165L19.7357 19.429C20.01 19.6355 20.3854 19.7897 20.767 19.7335C21.1408 19.6785 21.3631 19.4472 21.458 19.1905L21.458 19.1905C21.5525 18.9346 21.5398 18.6258 21.4265 18.3195M21.4265 18.3195L20.9366 18.3831L21.4265 18.3196L21.4265 18.3195ZM19.0606 17.7602L19.2357 17.2033L18.6674 16.7558C18.6674 16.7558 18.6674 16.7558 18.6674 16.7558C18.5328 16.6499 18.4125 16.527 18.3135 16.3925L19.0606 17.7602ZM19.0606 17.7602C19.0606 17.7603 19.0606 17.7603 19.0606 17.7603M19.0606 17.7602L19.0606 17.7603M19.0606 17.7603C19.0192 17.8921 19.003 18.0352 19.0143 18.1825L19.0606 17.7603ZM18.3846 18.7314C18.2497 18.387 18.172 18.0426 18.1468 17.7139L31.7846 18.727C31.5992 19.255 31.2623 19.5685 30.8534 19.6287C30.4067 19.6945 29.8699 19.5349 29.3316 19.1381L29.3316 19.1381C29.0426 18.9251 28.7636 18.6486 28.5191 18.3204L28.2932 18.0172L27.9267 18.0711L22.7316 18.836L22.3656 18.8899L22.3883 19.2224C22.4129 19.5823 22.3686 19.9058 22.2689 20.1757C22.0823 20.6811 21.7209 20.9733 21.278 21.0385C20.8242 21.1053 20.2738 20.9385 19.7266 20.5265C19.1808 20.1154 18.6801 19.4861 18.3846 18.7314ZM18.1468 17.7139C18.1417 17.6466 18.1388 17.5808 18.1382 17.5166L18.1369 17.365L18.0259 17.2296C17.9788 17.1722 17.9326 17.1128 17.8875 17.0515L18.1468 17.7139ZM19.3139 14.5849C19.1285 14.5209 18.9275 14.493 18.7268 14.5225C18.3452 14.5787 18.1248 14.8206 18.0334 15.081L18.5154 15.2706L18.0334 15.081C17.9415 15.3425 17.9612 15.6581 18.0833 15.9701C18.1425 16.1213 18.2191 16.2644 18.3134 16.3924L19.3139 14.5849Z" stroke="#EE7333" stroke-opacity="0.15"/>
</svg>
