<svg width="42" height="31" viewBox="0 0 42 31" fill="none" xmlns="http://www.w3.org/2000/svg">
<path d="M10.8788 11.8954L30.4113 14.897C30.9455 14.9791 31.2763 15.3497 31.4474 15.8899C31.6246 16.4491 31.6169 17.1902 31.482 17.9592L29.8017 27.5384C29.771 27.7134 29.7291 27.8779 29.6776 28.0316C29.4597 28.6813 29.0659 29.2357 28.6049 29.642C28.1836 30.0133 27.6987 30.2602 27.25 30.332C27.0779 30.3596 26.9141 30.3631 26.7642 30.3401L4.31642 26.8905C4.16654 26.8674 4.02109 26.8164 3.88337 26.7412C3.52442 26.5453 3.24465 26.1808 3.1015 25.7228C2.94487 25.2217 2.94344 24.6065 3.16135 23.9568C3.21291 23.8031 3.28007 23.6425 3.36403 23.4757L7.95954 14.3445C8.32853 13.6113 8.79432 12.9407 9.31087 12.4881C9.80986 12.0508 10.3446 11.8133 10.8788 11.8954L10.8788 11.8954ZM29.8708 16.5086L10.3382 13.507C10.1263 13.4744 9.91163 13.5707 9.70986 13.7475C9.42135 14.0004 9.14589 14.4053 8.91595 14.8622L4.32044 23.9933C4.30109 24.0318 4.28301 24.0766 4.26623 24.1266C4.20008 24.3238 4.20625 24.5289 4.26274 24.7097C4.33271 24.9337 4.47163 25.113 4.65085 25.2108C4.71138 25.2439 4.78047 25.2671 4.85699 25.2789L27.3047 28.7285C27.3812 28.7403 27.4584 28.7395 27.5341 28.7274C27.7581 28.6915 27.9979 28.5703 28.2038 28.3888C28.3701 28.2423 28.5066 28.059 28.5727 27.8619C28.5895 27.8118 28.6017 27.7661 28.6088 27.7258L30.2891 18.1466C30.3732 17.6674 30.383 17.2216 30.2841 16.9093C30.2149 16.6908 30.0827 16.5412 29.8708 16.5086L29.8708 16.5086Z" fill="#EE7333" fill-opacity="0.15"/>
<path d="M12.786 14.7373C11.668 14.5951 11.234 13.8594 11.271 12.8415C11.2906 12.3003 11.4534 11.6951 11.7228 11.0737C11.9722 10.4985 12.3161 9.90269 12.7214 9.33092C13.9272 7.62997 15.7283 6.09486 17.2325 5.92917C17.7866 4.65803 18.6061 3.55889 19.5316 2.76824C20.6153 1.84244 21.8456 1.34098 22.9656 1.48333C23.076 1.49737 22.9582 1.47851 23.0274 1.48885C24.1151 1.65137 24.8896 2.40682 25.2652 3.5047C25.5893 4.45168 25.6146 5.65418 25.2863 6.95078C25.8327 7.17603 26.2289 7.64799 26.4437 8.2759C26.6316 8.82502 26.6796 9.4939 26.567 10.2215C26.7437 10.1931 26.919 10.1886 27.09 10.2103C27.1113 10.213 27.1211 10.2141 27.1241 10.2141L27.1243 10.2136C27.1168 10.2115 27.0685 10.2037 27.1248 10.2121C27.7459 10.3049 28.1885 10.7372 28.4035 11.3655C28.6179 11.9923 28.6035 12.8151 28.3113 13.6908C28.3012 13.7209 28.2969 13.7343 28.2958 13.7382L28.2962 13.7383C28.3005 13.728 28.3245 13.6596 28.2973 13.7385C27.9915 14.6245 27.4559 15.3945 26.8372 15.9231C26.2199 16.4504 25.5185 16.736 24.8792 16.6547C24.4966 16.6061 23.0208 16.363 21.196 16.0624C18.2487 15.5769 14.3883 14.9409 12.786 14.7373L12.786 14.7373ZM12.462 12.3947C12.4461 12.8341 12.6843 13.1581 13.2911 13.2353C14.902 13.44 18.7694 14.0772 21.7221 14.5636C23.54 14.863 25.0103 15.1052 25.3843 15.1528C25.7256 15.1962 26.1029 15.0413 26.4369 14.756C26.7695 14.4719 27.0579 14.0567 27.2231 13.578C27.2584 13.4757 27.2301 13.5625 27.2252 13.5783L27.2253 13.5783L27.2352 13.5486C27.3889 13.0882 27.3961 12.6548 27.2829 12.3239C27.1702 11.9945 26.9357 11.7675 26.6051 11.7181C26.532 11.7072 26.5944 11.7141 26.6061 11.7152L26.6061 11.715L26.5849 11.7123C26.4658 11.6971 26.342 11.7062 26.2169 11.7365C26.0893 11.7674 25.9591 11.8218 25.8304 11.8963L24.7246 12.5364L25.2241 11.1345L25.2287 11.1215L25.2297 11.1186C25.2562 11.0448 25.1769 11.2662 25.2355 11.0962C25.2874 10.946 25.2145 11.1662 25.252 11.0541C25.4804 10.3698 25.4913 9.72572 25.3232 9.23432C25.1555 8.7444 24.8075 8.4069 24.3174 8.33367C24.2101 8.31764 24.3688 8.33694 24.288 8.32659L23.7408 8.25655L24.0035 7.49536C24.0543 7.34821 23.9942 7.53091 24.0284 7.42841C24.4006 6.31294 24.4186 5.26356 24.1447 4.46312C23.8713 3.66415 23.3048 3.11393 22.5076 2.99482C22.4023 2.97909 22.5344 2.99469 22.4605 2.9853C21.6384 2.88081 20.7322 3.25153 19.9318 3.9353C19.1328 4.61787 18.4405 5.61404 18.0444 6.76187L17.7895 7.50058L17.2548 7.43261C16.1157 7.28781 14.5315 8.61905 13.4776 10.1058C13.1686 10.5417 12.9108 10.9857 12.7297 11.4035C12.5687 11.7749 12.4721 12.1159 12.462 12.3947L12.462 12.3947ZM27.1241 10.2141C27.1257 10.2142 27.1255 10.214 27.1243 10.2136L27.1241 10.2141ZM26.6061 11.7152C26.6083 11.7154 26.6087 11.7154 26.6062 11.7151L26.6061 11.7152ZM28.2958 13.7382C28.2953 13.7401 28.2955 13.7398 28.2962 13.7383L28.2958 13.7382ZM27.2252 13.5783C27.2243 13.5811 27.2242 13.5816 27.2253 13.5783L27.2252 13.5783Z" fill="#EE7333" fill-opacity="0.15"/>
<path d="M14.6938 16.7201C15.0941 16.7816 15.3934 17.0455 15.5674 17.4354C15.6723 17.6703 15.7308 17.9519 15.7378 18.263L21.9641 19.2204C22.1687 18.9418 22.401 18.705 22.6454 18.5237C23.0509 18.2229 23.4891 18.0725 23.8894 18.1341C24.3527 18.2053 24.6803 18.5441 24.8354 19.0342C24.9904 19.5244 24.973 20.1658 24.7462 20.8422C24.6413 21.1554 24.4963 21.4539 24.3233 21.7268C24.2763 21.8009 24.2276 21.8724 24.1773 21.9413C24.1787 22.0182 24.1771 22.097 24.1722 22.1775C24.1543 22.4743 24.0947 22.7859 23.9898 23.0991C23.763 23.7755 23.3698 24.3592 22.9175 24.7559C22.4652 25.1526 21.9537 25.3624 21.4904 25.2912C21.0365 25.2214 20.7129 24.8926 20.5543 24.4155C20.4619 24.1373 20.4263 23.8081 20.4545 23.45L14.4029 22.5194C14.2 22.8507 13.958 23.1372 13.6973 23.3611C13.2501 23.7451 12.7485 23.947 12.2947 23.8772C11.8314 23.8059 11.5038 23.4671 11.3487 22.977C11.1937 22.4869 11.2111 21.8455 11.4379 21.169C11.5428 20.8558 11.6878 20.5574 11.8608 20.2844C11.9078 20.2104 11.9565 20.1388 12.0068 20.0699C12.0054 19.9931 12.007 19.9143 12.0119 19.8338C12.0298 19.5369 12.0894 19.2254 12.1943 18.9122C12.4211 18.2357 12.8143 17.6521 13.2666 17.2553C13.7189 16.8586 14.2304 16.6488 14.6938 16.7201L14.6938 16.7201ZM14.4539 18.5766C14.3951 18.4448 14.292 18.3553 14.1529 18.3339C13.9946 18.3095 13.82 18.3811 13.6657 18.5164C13.5113 18.6518 13.3771 18.8511 13.2997 19.0821C13.261 19.1976 13.2395 19.3042 13.2338 19.3986C13.2277 19.4994 13.2378 19.5959 13.2625 19.683L13.4346 20.2894L12.8928 20.7861C12.8149 20.8575 12.7443 20.9416 12.6855 21.0343C12.6305 21.121 12.5819 21.2234 12.5432 21.3389C12.4658 21.57 12.4598 21.789 12.5127 21.9562C12.5656 22.1234 12.6774 22.2391 12.8357 22.2634C12.9926 22.2875 13.1641 22.2194 13.3155 22.0893C13.469 21.9575 13.603 21.7642 13.6823 21.5402L13.9606 20.7544L14.4969 20.8369L21.4423 21.9049L21.9787 21.9874L21.7287 22.7775C21.6574 23.0027 21.655 23.2163 21.7095 23.38C21.7632 23.5416 21.8744 23.6532 22.0313 23.6774C22.1895 23.7017 22.3642 23.6301 22.5185 23.4948C22.6728 23.3594 22.807 23.1601 22.8845 22.9291C22.9232 22.8136 22.9447 22.707 22.9504 22.6126C22.9564 22.5118 22.9463 22.4154 22.9216 22.3282L22.7496 21.7218L23.2914 21.2251C23.3692 21.1537 23.4399 21.0696 23.4986 20.977C23.5536 20.8902 23.6022 20.7878 23.6409 20.6723C23.7184 20.4412 23.7244 20.2222 23.6715 20.055C23.6186 19.8878 23.5067 19.7722 23.3485 19.7478C23.2093 19.7264 23.0592 19.777 22.9222 19.8787C22.7809 19.9835 22.6524 20.1402 22.5622 20.3265L22.2543 20.962L21.8048 20.8928L14.8151 19.8181L14.3657 19.749L14.4931 19.0858C14.5305 18.8913 14.5145 18.7124 14.4539 18.5766L14.4539 18.5766Z" fill="#EE7333" fill-opacity="0.15"/>
</svg>
