<svg width="76" height="31" viewBox="0 0 76 31" fill="none" xmlns="http://www.w3.org/2000/svg">
<path d="M29.2369 17.3865L47.6656 11.0986C48.1696 10.9267 48.7323 11.0342 49.2968 11.323C49.881 11.622 50.4557 12.1211 50.9477 12.693L57.0755 19.8168C57.1874 19.947 57.2819 20.0748 57.36 20.1996C57.69 20.7268 57.8007 21.2651 57.7398 21.7328C57.6842 22.1601 57.4788 22.5314 57.1658 22.77C57.0457 22.8616 56.9137 22.9335 56.7723 22.9818L35.5931 30.2081C35.4517 30.2564 35.2919 30.284 35.1197 30.2922C34.6706 30.3136 34.1546 30.1885 33.6777 29.9428C33.1559 29.674 32.6723 29.2629 32.3423 28.7356C32.2642 28.6109 32.1936 28.4749 32.1319 28.3276L28.7546 20.2653C28.4834 19.618 28.341 18.9714 28.4112 18.4491C28.479 17.9446 28.7329 17.5585 29.2369 17.3865L29.2369 17.3865ZM48.4843 12.4067L30.0556 18.6946C29.8556 18.7628 29.7545 18.9184 29.7271 19.1225C29.6878 19.4142 29.7786 19.8021 29.9476 20.2055L33.3249 28.2678C33.3391 28.3017 33.3593 28.3394 33.3847 28.38C33.4849 28.54 33.6508 28.6747 33.8391 28.7716C34.0722 28.8918 34.3272 28.9528 34.5514 28.9421C34.6271 28.9385 34.7022 28.9247 34.7744 28.9001L55.9536 21.6737C56.0257 21.6491 56.0886 21.6158 56.1414 21.5756C56.2977 21.4564 56.4 21.2735 56.4272 21.0645C56.4491 20.8958 56.4178 20.7153 56.3176 20.5553C56.2922 20.5146 56.2664 20.4789 56.2406 20.4489L50.1129 13.3251C49.8063 12.9687 49.4649 12.6662 49.1386 12.4993C48.9103 12.3824 48.6843 12.3384 48.4843 12.4067L48.4843 12.4067Z" fill="#EE7333" fill-opacity="0.15"/>
<path d="M35.4434 16.4928C34.4165 16.8625 33.4663 16.5259 32.6714 15.7925C32.2487 15.4025 31.891 14.9072 31.6071 14.3557C31.3443 13.8452 31.1418 13.2804 31.0089 12.7068C30.6136 11.0003 30.8381 9.16054 31.9304 8.41148C31.352 7.28205 31.1295 6.16236 31.2434 5.21573C31.3767 4.10729 31.9736 3.23651 33.0023 2.86618C33.1037 2.82969 32.9923 2.8659 33.0572 2.84411C34.0758 2.5016 35.3198 2.7089 36.5159 3.32537C37.5477 3.85712 38.543 4.69461 39.3261 5.74711C39.9543 5.67634 40.6599 5.84272 41.344 6.19531C41.9422 6.50365 42.5235 6.95524 43.0213 7.51574C43.1425 7.42143 43.2817 7.3446 43.4388 7.28807C43.4584 7.28102 43.4672 7.27764 43.4698 7.27641L43.4695 7.27598C43.4616 7.2776 43.416 7.29241 43.4687 7.27468C44.0504 7.07911 44.7616 7.19797 45.4462 7.55077C46.1291 7.90273 46.7843 8.48919 47.2557 9.22965C47.2719 9.25505 47.2792 9.26633 47.2815 9.26958L47.2818 9.26947C47.277 9.26043 47.2412 9.20208 47.2829 9.26912C47.7516 10.0226 47.939 10.7908 47.8628 11.4236C47.7869 12.055 47.4463 12.5513 46.8592 12.7626C46.5078 12.8891 45.1072 13.3379 43.3755 13.8928C40.5785 14.7891 36.9151 15.9631 35.4434 16.4928L35.4434 16.4928ZM33.2805 14.9768C33.6236 15.2933 34.0806 15.4218 34.638 15.2212C36.1175 14.6886 39.7877 13.5125 42.5898 12.6146C44.3149 12.0617 45.7102 11.6146 46.0537 11.491C46.3672 11.3781 46.5494 11.1103 46.5905 10.7687C46.6315 10.4285 46.5301 10.0145 46.2769 9.60737C46.2228 9.52045 46.2701 9.59357 46.2788 9.60673L46.2789 9.60669L46.263 9.58161C46.0151 9.19232 45.6697 8.88352 45.3092 8.69772C44.9503 8.51275 44.575 8.45121 44.2654 8.55531C44.197 8.57832 44.2536 8.55702 44.2639 8.55288L44.2638 8.55274L44.2443 8.55972C44.1349 8.59907 44.0413 8.65752 43.9638 8.73147C43.8848 8.8069 43.8227 8.89999 43.7781 9.00659L43.3952 9.92287L42.6663 8.72412L42.6595 8.713L42.658 8.71051C42.6197 8.64737 42.7345 8.83689 42.6446 8.69232C42.5651 8.56456 42.6842 8.75053 42.6239 8.65566C42.2555 8.07702 41.7424 7.61819 41.207 7.34225C40.6732 7.06715 40.1159 6.97538 39.6569 7.12971C39.5564 7.1635 39.7014 7.1104 39.6272 7.13707L39.1241 7.31765L38.7214 6.67036C38.6436 6.54523 38.7426 6.69936 38.6875 6.61269C38.0869 5.66947 37.251 4.92178 36.3789 4.47232C35.5084 4.02369 34.6005 3.8737 33.8539 4.12474C33.7553 4.1579 33.8756 4.11342 33.8078 4.13783C33.0526 4.40967 32.6141 5.052 32.5156 5.87067C32.4173 6.6879 32.6602 7.68149 33.2674 8.65757L33.6583 9.28574L33.1672 9.46252C32.1209 9.83914 31.908 11.4439 32.2536 12.9355C32.3549 13.3728 32.5045 13.7944 32.6954 14.1651C32.8651 14.4947 33.0628 14.7758 33.2805 14.9768L33.2805 14.9768ZM43.4698 7.2764C43.471 7.27577 43.4708 7.2757 43.4695 7.27598L43.4698 7.2764ZM44.2639 8.55288C44.2659 8.55211 44.2662 8.55195 44.2639 8.55274L44.2639 8.55288ZM47.2815 9.26958C47.2826 9.27108 47.2826 9.27082 47.2819 9.26947L47.2815 9.26958ZM46.2788 9.60673C46.2804 9.60909 46.2806 9.60948 46.2789 9.60669L46.2788 9.60673Z" fill="#EE7333" fill-opacity="0.15"/>
<path d="M36.1617 18.9979C36.5394 18.869 36.9925 18.9182 37.4412 19.1049C37.7116 19.2174 37.9804 19.3807 38.2299 19.5857L44.1051 17.5803C44.0553 17.3071 44.061 17.0501 44.1202 16.8251C44.2183 16.4518 44.4611 16.165 44.8389 16.0361C45.2761 15.8869 45.8112 15.9742 46.3228 16.2359C46.8344 16.4977 47.3226 16.9338 47.6659 17.4824C47.8249 17.7363 47.9394 17.9974 48.0108 18.2534C48.0301 18.3228 48.0461 18.3914 48.0587 18.4588C48.12 18.5096 48.1804 18.5629 48.2395 18.6188C48.4573 18.8248 48.6524 19.0584 48.8113 19.3124C49.1547 19.8609 49.2883 20.4182 49.2268 20.8755C49.1652 21.3328 48.9086 21.6904 48.4714 21.8397C48.0431 21.9858 47.5191 21.9036 47.0147 21.652C46.7208 21.5053 46.4336 21.3004 46.1762 21.049L40.4657 22.9982C40.5583 23.3059 40.5836 23.6002 40.5444 23.8606C40.4771 24.3073 40.2224 24.6553 39.7941 24.8015C39.3569 24.9507 38.8218 24.8634 38.3102 24.6017C37.7986 24.34 37.3104 23.9038 36.9671 23.3552C36.8081 23.1013 36.6936 22.8402 36.6222 22.5842C36.6029 22.5148 36.5869 22.4462 36.5743 22.3788C36.513 22.328 36.4526 22.2747 36.3935 22.2188C36.1757 22.0128 35.9806 21.7792 35.8217 21.5252C35.4783 20.9767 35.3447 20.4195 35.4062 19.9621C35.4677 19.5048 35.7244 19.1472 36.1616 18.9979L36.1617 18.9979ZM37.4187 20.3409C37.267 20.2777 37.1121 20.2617 36.9807 20.3065C36.8314 20.3575 36.7437 20.4795 36.7227 20.6356C36.7018 20.7916 36.7474 20.9819 36.8647 21.1692C36.9233 21.2629 36.9891 21.3433 37.0584 21.4087C37.1323 21.4787 37.2162 21.5389 37.3049 21.5866L37.9216 21.9189L37.8647 22.4812C37.8566 22.5619 37.8643 22.6481 37.8885 22.7351C37.9112 22.8164 37.9515 22.9056 38.0101 22.9992C38.1273 23.1866 38.294 23.3355 38.4686 23.4248C38.6431 23.5141 38.8258 23.5439 38.9751 23.4929C39.1232 23.4424 39.2109 23.324 39.2337 23.1727C39.2568 23.0193 39.2157 22.8332 39.1055 22.6498L38.7189 22.0063L39.225 21.8335L45.7788 19.5965L46.2849 19.4237L46.6982 20.0581C46.816 20.2389 46.9813 20.3827 47.1544 20.469C47.3252 20.5542 47.5042 20.5816 47.6523 20.5311C47.8016 20.4801 47.8893 20.358 47.9103 20.202C47.9313 20.046 47.8856 19.8557 47.7683 19.6684C47.7097 19.5747 47.6439 19.4943 47.5747 19.4288C47.5007 19.3589 47.4168 19.2987 47.3282 19.2509L46.7114 18.9186L46.7683 18.3564C46.7764 18.2756 46.7687 18.1894 46.7445 18.1025C46.7218 18.0211 46.6816 17.932 46.6229 17.8384C46.5057 17.651 46.339 17.5021 46.1645 17.4128C45.9899 17.3235 45.8072 17.2937 45.6579 17.3447C45.5266 17.3895 45.4427 17.4871 45.4095 17.6133C45.3754 17.7433 45.3924 17.9027 45.4641 18.0656L45.7084 18.6212L45.2843 18.7659L38.6887 21.0173L38.2646 21.162L37.8499 20.6646C37.7283 20.5187 37.5749 20.4059 37.4187 20.3409L37.4187 20.3409Z" fill="#EE7333" fill-opacity="0.15"/>
</svg>
