<svg width="23" height="35" viewBox="0 0 23 35" fill="none" xmlns="http://www.w3.org/2000/svg">
<mask id="path-1-inside-1_2975_690" fill="white">
<path d="M11.9789 25.9079C12.567 26.4515 13.03 27.2023 13.3226 28.0321C13.6851 29.0598 13.7871 30.2099 13.5426 31.2387C13.2978 32.2684 12.7532 32.9808 12.0706 33.2999C11.388 33.619 10.5666 33.5457 9.76837 33.0045C9.3825 32.7428 9.03707 32.3949 8.74193 31.9886C8.54957 31.7237 8.37884 31.4344 8.23247 31.1284C8.00074 31.1796 7.75949 31.19 7.5139 31.1569C7.1355 31.1059 6.74325 30.9533 6.35549 30.6903C5.55647 30.1486 4.9327 29.2419 4.57022 28.2141C4.20775 27.1864 4.1058 26.0363 4.35031 25.0075C4.59502 23.9778 5.13963 23.2655 5.82227 22.9464C6.37356 22.6886 7.0154 22.6869 7.66253 22.981L10.9913 8.97491C10.4033 8.43132 9.94027 7.68053 9.64761 6.85071C9.28515 5.82302 9.1832 4.67291 9.4277 3.64413C9.67244 2.61439 10.217 1.90208 10.8997 1.58296C11.5823 1.26387 12.4036 1.33713 13.2019 1.87841C13.5878 2.14004 13.9332 2.48793 14.2283 2.89429C14.4207 3.15916 14.5914 3.44848 14.7378 3.75447C14.9695 3.70323 15.2108 3.69291 15.4564 3.72598C15.8348 3.77695 16.227 3.92959 16.6148 4.19252C17.4138 4.73431 18.0376 5.64094 18.4001 6.66875C18.7625 7.69644 18.8645 8.84655 18.62 9.87533C18.3752 10.905 17.8306 11.6174 17.148 11.9365C16.5967 12.1942 15.9548 12.1959 15.3077 11.9019L11.9789 25.9079L11.9789 25.9079ZM12.4865 28.4228C12.237 27.7154 11.809 27.0922 11.2617 26.7211L10.8094 26.4144L10.9476 25.8329L14.5317 10.7529L14.6702 10.1699L15.1214 10.4759C15.6694 10.8475 16.2342 10.8974 16.7041 10.6777C17.174 10.458 17.5484 9.96942 17.7161 9.26412C17.8839 8.55787 17.8135 7.767 17.5639 7.05948C17.3144 6.35205 16.8864 5.72885 16.3391 5.35776C16.0751 5.17876 15.8062 5.07459 15.5452 5.03942C15.2709 5.00249 15.009 5.04032 14.7735 5.14633L14.363 5.33118L14.1416 4.7168C14.0138 4.36208 13.8412 4.02958 13.6315 3.74081C13.4295 3.46268 13.1921 3.22396 12.9262 3.04365C12.3782 2.67208 11.8135 2.62217 11.3436 2.84184C10.8737 3.06152 10.4992 3.55011 10.3316 4.25541C10.1637 4.96167 10.2342 5.75253 10.4837 6.46005C10.7332 7.16751 11.1613 7.79066 11.7085 8.16175L12.1609 8.46847L12.0226 9.04997L8.43861 24.1301L8.30008 24.713L7.84883 24.407C7.3008 24.0355 6.73608 23.9856 6.26615 24.2053C5.79629 24.4249 5.42182 24.9135 5.25421 25.6188C5.08636 26.3251 5.1568 27.1159 5.40634 27.8235C5.65585 28.5309 6.08388 29.1541 6.63116 29.5252C6.89515 29.7042 7.16406 29.8083 7.42503 29.8435C7.69936 29.8804 7.9613 29.8426 8.19675 29.7366L8.60727 29.5518L8.82865 30.1661C8.95646 30.5209 9.12906 30.8533 9.3388 31.1421C9.54081 31.4202 9.77813 31.659 10.044 31.8393C10.5921 32.2109 11.1568 32.2608 11.6267 32.0411C12.0966 31.8214 12.4711 31.3328 12.6387 30.6275C12.8065 29.9213 12.7361 29.1304 12.4865 28.4229L12.4865 28.4228Z"/>
</mask>
<path d="M11.9789 25.9079L10.9867 26.014L11.0547 26.353L11.319 26.5974L11.9789 25.9079ZM13.3226 28.0321L14.2762 27.7857L14.2762 27.7857L13.3226 28.0321ZM13.5426 31.2387L12.556 30.9357L12.556 30.9357L13.5426 31.2387ZM12.0706 33.2999L11.5704 32.4005L11.5704 32.4005L12.0706 33.2999ZM9.76837 33.0045L10.2937 32.2081L10.2936 32.2081L9.76837 33.0045ZM8.74193 31.9886L7.93442 32.512L7.93444 32.5121L8.74193 31.9886ZM8.23247 31.1284L9.14235 30.7766L8.76068 29.9787L7.92782 30.1628L8.23247 31.1284ZM7.5139 31.1569L7.46379 32.1363L7.46383 32.1363L7.5139 31.1569ZM6.35549 30.6903L6.8808 29.894L6.88078 29.894L6.35549 30.6903ZM4.57022 28.2141L5.52375 27.9676L5.52375 27.9676L4.57022 28.2141ZM4.35031 25.0075L5.33685 25.3106L5.33685 25.3106L4.35031 25.0075ZM5.82227 22.9464L6.32244 23.8457L6.32248 23.8457L5.82227 22.9464ZM7.66253 22.981L7.3049 23.8714L8.39205 24.3655L8.64906 23.284L7.66253 22.981ZM10.9913 8.97491L11.9778 9.27799L12.1124 8.71176L11.6512 8.28538L10.9913 8.97491ZM9.64761 6.85071L10.6011 6.60425L10.6011 6.60423L9.64761 6.85071ZM9.4277 3.64413L8.44117 3.34106L8.44117 3.34106L9.4277 3.64413ZM10.8997 1.58296L11.3999 2.48233L11.3999 2.48233L10.8997 1.58296ZM13.2019 1.87841L12.6766 2.67479L12.6766 2.67479L13.2019 1.87841ZM14.2283 2.89429L13.4208 3.4178L13.4209 3.41781L14.2283 2.89429ZM14.7378 3.75447L13.8279 4.10628L14.2096 4.90419L15.0424 4.72004L14.7378 3.75447ZM15.4564 3.72598L15.5065 2.74654L15.5064 2.74653L15.4564 3.72598ZM16.6148 4.19252L16.0895 4.98889L16.0895 4.9889L16.6148 4.19252ZM18.4001 6.66875L17.4465 6.91523L17.4465 6.91524L18.4001 6.66875ZM18.62 9.87533L17.6334 9.57226L17.6334 9.57226L18.62 9.87533ZM17.148 11.9365L17.6481 12.8359L17.6481 12.8359L17.148 11.9365ZM15.3077 11.9019L15.6654 11.0114L14.5782 10.5174L14.3212 11.5988L15.3077 11.9019ZM11.9789 25.9079L10.9924 25.6048L10.9448 25.8049L10.9867 26.014L11.9789 25.9079ZM12.4865 28.4228L13.4836 28.3429L13.469 28.2584L13.4401 28.1764L12.4865 28.4228ZM11.2617 26.7211L10.7364 27.5175L10.7364 27.5175L11.2617 26.7211ZM10.8094 26.4144L9.82286 26.1113L9.66183 26.7888L10.2841 27.2108L10.8094 26.4144ZM10.9476 25.8329L11.9341 26.136L11.9341 26.136L10.9476 25.8329ZM14.5317 10.7529L13.5451 10.4498L13.5451 10.4498L14.5317 10.7529ZM14.6702 10.1699L15.1955 9.37355L13.9945 8.5592L13.6837 9.86686L14.6702 10.1699ZM15.1214 10.4759L14.5961 11.2723L14.5961 11.2723L15.1214 10.4759ZM16.7041 10.6777L16.2039 9.77829L16.2039 9.77831L16.7041 10.6777ZM17.7161 9.26412L18.7026 9.5672L18.7026 9.56718L17.7161 9.26412ZM17.5639 7.05948L16.6104 7.30595L16.6104 7.30596L17.5639 7.05948ZM16.3391 5.35776L15.8138 6.15413L15.8138 6.15415L16.3391 5.35776ZM15.5452 5.03942L15.5954 4.05999L15.5953 4.05997L15.5452 5.03942ZM14.7735 5.14633L14.2852 4.24149L14.2852 4.24151L14.7735 5.14633ZM14.363 5.33118L13.4118 5.58437L13.8148 6.7027L14.8513 6.236L14.363 5.33118ZM14.1416 4.7168L13.1905 4.96997L13.1905 4.97L14.1416 4.7168ZM13.6315 3.74081L14.439 3.2173L14.439 3.2173L13.6315 3.74081ZM12.9262 3.04365L13.4516 2.24729L13.4515 2.24726L12.9262 3.04365ZM11.3436 2.84184L10.8434 1.94247L10.8434 1.94248L11.3436 2.84184ZM10.3316 4.25541L9.34505 3.95233L9.34505 3.95235L10.3316 4.25541ZM10.4837 6.46005L11.4372 6.21359L11.4372 6.21358L10.4837 6.46005ZM11.7085 8.16175L12.2339 7.36539L12.2338 7.36538L11.7085 8.16175ZM12.1609 8.46847L13.1474 8.77155L13.3084 8.09406L12.6862 7.67212L12.1609 8.46847ZM12.0226 9.04997L11.0361 8.74689L11.0361 8.7469L12.0226 9.04997ZM8.43861 24.1301L7.45207 23.827L7.45206 23.827L8.43861 24.1301ZM8.30008 24.713L7.77481 25.5094L8.97586 26.3237L9.28662 25.016L8.30008 24.713ZM7.84883 24.407L7.32354 25.2034L7.32357 25.2034L7.84883 24.407ZM6.26615 24.2053L6.76632 25.1046L6.76635 25.1046L6.26615 24.2053ZM5.25421 25.6188L6.24075 25.9219L6.24075 25.9219L5.25421 25.6188ZM5.40634 27.8235L6.35987 27.577L6.35987 27.577L5.40634 27.8235ZM6.63116 29.5252L7.15646 28.7288L7.15646 28.7288L6.63116 29.5252ZM7.42503 29.8435L7.37487 30.8229L7.375 30.823L7.42503 29.8435ZM8.19675 29.7366L8.68502 30.6414L8.68506 30.6414L8.19675 29.7366ZM8.60727 29.5518L9.55841 29.2986L9.15544 28.1802L8.11896 28.6469L8.60727 29.5518ZM8.82865 30.1661L9.7798 29.913L9.77979 29.9129L8.82865 30.1661ZM9.3388 31.1421L8.53131 31.6656L8.53131 31.6656L9.3388 31.1421ZM10.044 31.8393L9.51871 32.6356L9.51874 32.6357L10.044 31.8393ZM11.6267 32.0411L11.1266 31.1417L11.1265 31.1417L11.6267 32.0411ZM12.6387 30.6275L13.6252 30.9306L13.6252 30.9306L12.6387 30.6275ZM12.4865 28.4229L11.4895 28.5029L11.5041 28.5873L11.533 28.6694L12.4865 28.4229ZM11.319 26.5974C11.7473 26.9934 12.1226 27.5796 12.3691 28.2786L14.2762 27.7857C13.9374 26.825 13.3866 25.9097 12.6388 25.2184L11.319 26.5974ZM12.3691 28.2786C12.6742 29.1437 12.7541 30.1021 12.556 30.9357L14.5291 31.5418C14.82 30.3178 14.696 28.976 14.2762 27.7857L12.3691 28.2786ZM12.556 30.9357C12.3567 31.7744 11.9449 32.2255 11.5704 32.4005L12.5708 34.1993C13.5616 33.7361 14.239 32.7625 14.5291 31.5418L12.556 30.9357ZM11.5704 32.4005C11.2312 32.5591 10.8027 32.5532 10.2937 32.2081L9.24307 33.8008C10.3306 34.5382 11.5448 34.6789 12.5708 34.1993L11.5704 32.4005ZM10.2936 32.2081C10.0342 32.0322 9.78051 31.7832 9.54943 31.4651L7.93444 32.5121C8.29364 33.0066 8.73078 33.4535 9.24308 33.8008L10.2936 32.2081ZM9.54945 31.4651C9.39942 31.2585 9.26226 31.0273 9.14235 30.7766L7.32258 31.4802C7.49542 31.8415 7.69972 32.1889 7.93442 32.512L9.54945 31.4651ZM7.92782 30.1628C7.8089 30.1891 7.6877 30.1941 7.56397 30.1774L7.46383 32.1363C7.83128 32.1858 8.19258 32.1701 8.53711 32.094L7.92782 30.1628ZM7.56402 30.1774C7.37145 30.1515 7.14077 30.0702 6.8808 29.894L5.83018 31.4867C6.34572 31.8363 6.89955 32.0603 7.46379 32.1363L7.56402 30.1774ZM6.88078 29.894C6.33384 29.5231 5.83197 28.8416 5.52375 27.9676L3.61668 28.4606C4.03343 29.6422 4.7791 30.774 5.83019 31.4867L6.88078 29.894ZM5.52375 27.9676C5.21864 27.1026 5.13874 26.1441 5.33685 25.3106L3.36377 24.7045C3.07286 25.9285 3.19687 27.2703 3.61669 28.4606L5.52375 27.9676ZM5.33685 25.3106C5.53617 24.4718 5.94797 24.0208 6.32244 23.8457L5.32209 22.047C4.33129 22.5102 3.65386 23.4838 3.36377 24.7045L5.33685 25.3106ZM6.32248 23.8457C6.60824 23.7121 6.93532 23.7035 7.3049 23.8714L8.02015 22.0905C7.09548 21.6703 6.13887 21.6651 5.32206 22.047L6.32248 23.8457ZM8.64906 23.284L11.9778 9.27799L10.0048 8.67184L6.67599 22.6779L8.64906 23.284ZM11.6512 8.28538C11.2229 7.88945 10.8477 7.30324 10.6011 6.60425L8.69407 7.09717C9.03288 8.05783 9.58368 8.9732 10.3314 9.66444L11.6512 8.28538ZM10.6011 6.60423C10.296 5.73916 10.2161 4.78074 10.4142 3.9472L8.44117 3.34106C8.15026 4.56508 8.27426 5.90689 8.69408 7.09719L10.6011 6.60423ZM10.4142 3.94721C10.6136 3.10842 11.0254 2.65739 11.3999 2.48233L10.3995 0.683586C9.40871 1.14677 8.73129 2.12036 8.44117 3.34106L10.4142 3.94721ZM11.3999 2.48233C11.7391 2.32376 12.1676 2.32965 12.6766 2.67479L13.7272 1.08203C12.6396 0.344618 11.4254 0.20397 10.3995 0.683592L11.3999 2.48233ZM12.6766 2.67479C12.9361 2.8507 13.1898 3.09965 13.4208 3.4178L15.0358 2.37079C14.6766 1.87621 14.2395 1.42937 13.7272 1.08202L12.6766 2.67479ZM13.4209 3.41781C13.5708 3.6243 13.708 3.85554 13.8279 4.10628L15.6477 3.40265C15.4749 3.04142 15.2706 2.69402 15.0358 2.37078L13.4209 3.41781ZM15.0424 4.72004C15.1614 4.69375 15.2825 4.68876 15.4063 4.70543L15.5064 2.74653C15.139 2.69705 14.7777 2.71271 14.4331 2.78889L15.0424 4.72004ZM15.4062 4.70542C15.5988 4.73136 15.8295 4.81261 16.0895 4.98889L17.1401 3.39616C16.6245 3.04658 16.0707 2.82254 15.5065 2.74654L15.4062 4.70542ZM16.0895 4.9889C16.6364 5.35976 17.1383 6.04128 17.4465 6.91523L19.3536 6.42228C18.9368 5.2406 18.1912 4.10885 17.1401 3.39615L16.0895 4.9889ZM17.4465 6.91524C17.7516 7.7803 17.8315 8.73872 17.6334 9.57226L19.6065 10.1784C19.8974 8.95438 19.7734 7.61258 19.3536 6.42227L17.4465 6.91524ZM17.6334 9.57226C17.4341 10.411 17.0223 10.862 16.6478 11.0371L17.6481 12.8359C18.639 12.3727 19.3164 11.3991 19.6065 10.1784L17.6334 9.57226ZM16.6478 11.0371C16.362 11.1707 16.0349 11.1793 15.6654 11.0114L14.9501 12.7923C15.8748 13.2126 16.8314 13.2177 17.6481 12.8359L16.6478 11.0371ZM14.3212 11.5988L10.9924 25.6048L12.9655 26.211L16.2943 12.205L14.3212 11.5988ZM10.9867 26.014L10.9867 26.014L12.9712 25.8018L12.9711 25.8018L10.9867 26.014ZM13.4401 28.1764C13.1368 27.3164 12.5873 26.4674 11.787 25.9248L10.7364 27.5175C11.0307 27.7171 11.3373 28.1144 11.533 28.6693L13.4401 28.1764ZM11.7871 25.9248L11.3347 25.618L10.2841 27.2108L10.7364 27.5175L11.7871 25.9248ZM11.7959 26.7175L11.9341 26.136L9.96107 25.5298L9.82286 26.1113L11.7959 26.7175ZM11.9341 26.136L15.5182 11.0559L13.5451 10.4498L9.96107 25.5298L11.9341 26.136ZM15.5182 11.0559L15.6567 10.473L13.6837 9.86686L13.5451 10.4498L15.5182 11.0559ZM14.1449 10.9663L14.5961 11.2723L15.6467 9.6795L15.1955 9.37355L14.1449 10.9663ZM14.5961 11.2723C15.4346 11.8408 16.3921 11.9567 17.2043 11.577L16.2039 9.77831C16.0762 9.83799 15.9043 9.85415 15.6467 9.6795L14.5961 11.2723ZM17.2043 11.577C17.9811 11.2139 18.4892 10.4651 18.7026 9.5672L16.7295 8.96104C16.6077 9.47377 16.3668 9.70214 16.2039 9.77829L17.2043 11.577ZM18.7026 9.56718C18.917 8.66518 18.8242 7.68256 18.5175 6.813L16.6104 7.30596C16.8028 7.85144 16.8509 8.45055 16.7295 8.96106L18.7026 9.56718ZM18.5175 6.81301C18.2142 5.95303 17.6647 5.10401 16.8644 4.56138L15.8138 6.15415C16.1081 6.3537 16.4147 6.75107 16.6104 7.30595L18.5175 6.81301ZM16.8644 4.56139C16.4706 4.29435 16.04 4.1199 15.5954 4.05999L15.4951 6.01886C15.5724 6.02928 15.6796 6.06317 15.8138 6.15413L16.8644 4.56139ZM15.5953 4.05997C15.1315 3.99754 14.6834 4.06222 14.2852 4.24149L15.2618 6.05116C15.3345 6.01842 15.4103 6.00744 15.4952 6.01888L15.5953 4.05997ZM14.2852 4.24151L13.8747 4.42636L14.8513 6.236L15.2618 6.05114L14.2852 4.24151ZM15.3141 5.07799L15.0927 4.46361L13.1905 4.97L13.4118 5.58437L15.3141 5.07799ZM15.0928 4.46363C14.9344 4.02402 14.7159 3.59863 14.439 3.2173L12.824 4.26432C12.9665 4.46054 13.0932 4.70013 13.1905 4.96997L15.0928 4.46363ZM14.439 3.2173C14.1723 2.85015 13.8431 2.51282 13.4516 2.24729L12.4009 3.84001C12.5411 3.9351 12.6866 4.07522 12.824 4.26432L14.439 3.2173ZM13.4515 2.24726C12.6131 1.67877 11.6556 1.5628 10.8434 1.94247L11.8437 3.74122C11.9714 3.68154 12.1434 3.66538 12.4009 3.84004L13.4515 2.24726ZM10.8434 1.94248C10.0666 2.30565 9.55846 3.05445 9.34505 3.95233L11.3181 4.55849C11.44 4.04577 11.6808 3.81738 11.8438 3.7412L10.8434 1.94248ZM9.34505 3.95235C9.13068 4.85436 9.2235 5.83697 9.53018 6.70653L11.4372 6.21358C11.2449 5.66809 11.1968 5.06898 11.3181 4.55847L9.34505 3.95235ZM9.53018 6.70652C9.8335 7.56655 10.383 8.4155 11.1832 8.95812L12.2338 7.36538C11.9395 7.16581 11.6329 6.76847 11.4372 6.21359L9.53018 6.70652ZM11.1832 8.9581L11.6355 9.26483L12.6862 7.67212L12.2339 7.36539L11.1832 8.9581ZM11.1743 8.16539L11.0361 8.74689L13.0092 9.35305L13.1474 8.77155L11.1743 8.16539ZM11.0361 8.7469L7.45207 23.827L9.42514 24.4331L13.0092 9.35304L11.0361 8.7469ZM7.45206 23.827L7.31354 24.4099L9.28662 25.016L9.42515 24.4331L7.45206 23.827ZM8.82534 23.9166L8.3741 23.6107L7.32357 25.2034L7.77481 25.5094L8.82534 23.9166ZM8.37413 23.6107C7.53564 23.0421 6.57812 22.9262 5.76595 23.3059L6.76635 25.1046C6.89403 25.0449 7.06596 25.0288 7.32354 25.2034L8.37413 23.6107ZM5.76597 23.3059C4.98917 23.669 4.48105 24.4178 4.26767 25.3158L6.24075 25.9219C6.36259 25.4091 6.60342 25.1808 6.76632 25.1046L5.76597 23.3059ZM4.26767 25.3157C4.0533 26.2178 4.14612 27.2004 4.45281 28.0699L6.35987 27.577C6.16748 27.0315 6.11942 26.4324 6.24075 25.9219L4.26767 25.3157ZM4.45281 28.0699C4.75612 28.9299 5.30561 29.7789 6.10585 30.3215L7.15646 28.7288C6.86216 28.5292 6.55558 28.1319 6.35987 27.577L4.45281 28.0699ZM6.10585 30.3215C6.49968 30.5886 6.93027 30.763 7.37487 30.8229L7.47519 28.8641C7.39785 28.8537 7.29062 28.8198 7.15646 28.7288L6.10585 30.3215ZM7.375 30.823C7.83874 30.8854 8.28683 30.8207 8.68502 30.6414L7.70848 28.8318C7.63576 28.8645 7.55998 28.8755 7.47506 28.8641L7.375 30.823ZM8.68506 30.6414L9.09558 30.4566L8.11896 28.6469L7.70844 28.8318L8.68506 30.6414ZM7.65614 29.8049L7.87751 30.4193L9.77979 29.9129L9.55841 29.2986L7.65614 29.8049ZM7.87751 30.4193C8.03591 30.8589 8.25436 31.2843 8.53131 31.6656L10.1463 30.6186C10.0038 30.4224 9.87701 30.1828 9.7798 29.913L7.87751 30.4193ZM8.53131 31.6656C8.79796 32.0328 9.12711 32.3701 9.51871 32.6356L10.5694 31.0429C10.4291 30.9478 10.2837 30.8077 10.1463 30.6186L8.53131 31.6656ZM9.51874 32.6357C10.3572 33.2042 11.3147 33.3202 12.1269 32.9404L11.1265 31.1417C10.9989 31.2014 10.8269 31.2176 10.5693 31.0429L9.51874 32.6357ZM12.1269 32.9405C12.9037 32.5773 13.4118 31.8285 13.6252 30.9306L11.6522 30.3244C11.5303 30.8372 11.2894 31.0656 11.1266 31.1417L12.1269 32.9405ZM13.6252 30.9306C13.8396 30.0286 13.7468 29.046 13.4401 28.1764L11.533 28.6694C11.7254 29.2149 11.7735 29.814 11.6522 30.3245L13.6252 30.9306ZM13.4836 28.3429L13.4836 28.3429L11.4894 28.5028L11.4895 28.5029L13.4836 28.3429Z" fill="#EE7333" fill-opacity="0.25" mask="url(#path-1-inside-1_2975_690)"/>
</svg>
