<svg width="39" height="34" viewBox="0 0 39 34" fill="none" xmlns="http://www.w3.org/2000/svg">
<path d="M19.1695 29.1221C18.9616 29.2079 18.7239 29.2475 18.4705 29.2282L18.4704 29.2281C18.1281 29.202 17.816 29.0715 17.5416 28.889C17.5103 28.8681 17.4793 28.8465 17.4486 28.8241C17.6952 29.1132 17.9555 29.3524 18.2193 29.5279L17.8794 29.7853L18.2194 29.5279C18.5238 29.7305 18.7637 29.8026 18.9251 29.8149C18.9251 29.8149 18.9251 29.815 18.9251 29.8149L18.8488 30.1581L19.1695 29.1221ZM19.1695 29.1221L19.2192 29.226C19.2921 29.3784 19.3713 29.5267 19.4562 29.6691L19.1695 29.1221ZM21.0128 25.1428L21.0133 25.0116C21.132 25.1225 21.2486 25.2452 21.3619 25.378C21.3313 25.3557 21.3003 25.3341 21.2691 25.3133L21.0128 25.1428ZM22.5036 30.9548C22.7132 30.7931 22.862 30.5805 22.9644 30.3442C22.9328 30.6104 22.8776 30.844 22.8041 31.0432C22.6846 31.3669 22.5253 31.5769 22.3711 31.6959L22.6961 31.9076L22.3711 31.6959C22.231 31.8039 22.1017 31.8353 21.9653 31.8276C21.8029 31.8185 21.558 31.7488 21.2446 31.5403L20.904 31.7982L21.2446 31.5403C20.9858 31.3682 20.7258 31.1308 20.4762 30.8383C20.5061 30.86 20.5363 30.881 20.5669 30.9014L20.9063 30.6444L20.5669 30.9014C20.8504 31.09 21.1749 31.2242 21.5311 31.2438C21.913 31.2648 22.2508 31.1497 22.5036 30.9548ZM19.7174 3.2507C19.7935 3.22072 19.8733 3.20799 19.9685 3.21525C20.13 3.22759 20.3698 3.2997 20.6743 3.50227L21.015 3.24443L20.6743 3.50227C20.9383 3.67784 21.1986 3.91714 21.4452 4.20623C21.4145 4.18381 21.3834 4.16216 21.3521 4.14131C21.0777 3.95879 20.7656 3.8283 20.4233 3.80213L20.4232 3.80212C20.1698 3.78279 19.9321 3.82233 19.7242 3.90816L19.6744 3.80423C19.6015 3.65189 19.5223 3.50357 19.4374 3.36107L19.7174 3.2507ZM23.0474 9.17216C23.0158 9.43838 22.9607 9.67192 22.8871 9.87122C22.7676 10.1949 22.6084 10.4049 22.4541 10.5238C22.3369 10.6142 22.2304 10.6476 22.1329 10.6549C22.0279 10.6629 21.8706 10.645 21.6569 10.5511L21.071 10.2938L21.0723 9.95159C21.243 10.0182 21.424 10.0613 21.6141 10.0717C21.996 10.0927 22.3338 9.97769 22.5865 9.78273L23.0474 9.17216ZM18.4176 2.19212C18.3877 2.17037 18.3574 2.14929 18.3268 2.12892L18.3268 2.12891C18.0433 1.94032 17.7188 1.80614 17.3626 1.78653C16.9807 1.76551 16.6429 1.88055 16.3902 2.07551L16.3901 2.07552C16.1805 2.23719 16.0317 2.4498 15.9293 2.6861C15.9609 2.41984 16.016 2.18627 16.0896 1.98694C16.2091 1.66325 16.3684 1.45327 16.5226 1.33432L16.5226 1.33432C16.6627 1.22627 16.792 1.19494 16.9284 1.20259C17.0907 1.21169 17.3357 1.28143 17.6491 1.48987L17.9897 1.23204L17.6491 1.48988C17.9079 1.66207 18.168 1.89949 18.4176 2.19212ZM17.8804 8.0186C17.7617 7.90768 17.6452 7.78508 17.5318 7.65224C17.5624 7.67457 17.5934 7.69614 17.6246 7.71692L17.8809 7.88741L17.8804 8.0186ZM17.8227 22.7364L17.8213 23.0787C17.6507 23.0121 17.4697 22.969 17.2796 22.9585C16.8976 22.9375 16.5599 23.0526 16.3071 23.2475C16.0975 23.4092 15.9487 23.6218 15.8463 23.8582C15.8778 23.5919 15.933 23.3583 16.0066 23.159C16.1261 22.8353 16.2853 22.6253 16.4395 22.5064L16.4396 22.5063C16.5568 22.4159 16.6633 22.3826 16.7607 22.3753C16.8658 22.3673 17.0231 22.3852 17.2368 22.4791L17.8227 22.7364Z" stroke="#EE7333" stroke-opacity="0.25"/>
</svg>
