<svg width="51" height="43" viewBox="0 0 51 43" fill="none" xmlns="http://www.w3.org/2000/svg">
<path d="M35.7789 27.362L36.0869 27.4704L36.247 27.3779C37.0298 26.9256 37.9821 26.8172 38.9171 26.9719C40.0402 27.1577 41.2469 27.7409 42.2972 28.7592C43.3694 29.7988 44.0466 31.0731 44.2282 32.2976C44.409 33.5177 44.0919 34.6525 43.2459 35.4129C42.8378 35.7797 42.3478 36.0214 41.8172 36.1503C41.4716 36.2344 41.1109 36.2701 40.7463 36.2626L40.4782 36.257L40.4758 36.4311C40.4707 36.8039 40.4153 37.1607 40.3083 37.4921C40.1433 38.0033 39.8568 38.4591 39.4466 38.8278C38.5966 39.5918 37.4115 39.8058 36.2521 39.614L36.2521 39.614C35.129 39.4282 33.9224 38.8449 32.8721 37.8266L32.4703 37.8922L32.8721 37.8266C31.7999 36.787 31.1227 35.5128 30.9411 34.2882L30.404 34.1274L30.9411 34.2882C30.7952 33.304 30.9732 32.3734 31.4943 31.6505L31.5919 31.515L31.3793 31.3088L15.3667 15.7837L14.8768 15.3087L14.4983 15.5274C13.7155 15.9797 12.7633 16.0882 11.8282 15.9334L11.8282 15.9334C10.7051 15.7476 9.49846 15.1644 8.44821 14.1461C7.37594 13.1064 6.69874 11.8322 6.5172 10.6076L5.97463 10.4451L6.5172 10.6076C6.33632 9.38754 6.65341 8.25285 7.49945 7.49241C7.90754 7.12559 8.39759 6.88393 8.92812 6.75494L8.53362 6.4054L8.92813 6.75494C9.27375 6.6709 9.63446 6.63519 9.99904 6.64274L10.2671 6.64829L10.2695 6.47418C10.2746 6.10139 10.3301 5.74462 10.437 5.4132C10.602 4.90197 10.8885 4.4462 11.2988 4.07747C12.1488 3.31348 13.3339 3.09948 14.4932 3.29131L14.3287 2.94924L14.4932 3.29131C15.6163 3.47712 16.823 4.0604 17.8733 5.07869L18.2763 5.01284L17.8733 5.07869C18.9455 6.11828 19.6227 7.39253 19.8042 8.61709C19.9501 9.60139 19.7721 10.532 19.2511 11.2548L19.1534 11.3903L19.3661 11.5965L35.3785 27.1216L35.5395 27.2777L35.7788 27.362L35.7789 27.362ZM42.099 29.5332C41.1934 28.6551 40.0403 28.0535 38.9151 27.8431L38.9099 27.8412L38.8099 27.8246C37.6878 27.6389 36.7116 27.8646 36.0624 28.448L35.9004 28.5937L35.7935 28.49L35.3904 28.5559L35.7935 28.49L18.5531 11.7743L18.1272 11.3615L18.4823 11.0423C19.1351 10.4556 19.3707 9.59089 19.2339 8.66804C19.0978 7.74987 18.5868 6.73665 17.6751 5.85271L17.2721 5.91855L17.6751 5.8527C16.7412 4.94724 15.5442 4.33571 14.386 4.14407C13.264 3.95843 12.2878 4.18406 11.6386 4.76756C11.323 5.05119 11.1058 5.40067 10.9803 5.78934L10.9803 5.78935C10.8487 6.1974 10.8163 6.64539 10.8799 7.10678L11.3166 7.23915L10.8799 7.10678L10.95 7.61452L10.5419 7.55067C9.97852 7.46253 9.45302 7.47911 8.99171 7.59127C8.54733 7.69932 8.15656 7.89733 7.83927 8.1825L8.33436 8.48154L7.83926 8.1825C7.18646 8.76927 6.95081 9.63397 7.08761 10.5568L7.55541 10.6969L7.08761 10.5568C7.22375 11.475 7.73473 12.4882 8.64641 13.3721L9.02867 13.3097L8.64642 13.3721C9.58033 14.2776 10.7773 14.8891 11.9355 15.0808C13.0576 15.2664 14.0338 15.0408 14.6829 14.4573L14.845 14.3117L14.9519 14.4153L15.3349 14.3527L14.9519 14.4153L32.1924 31.131L32.1924 31.131L32.6182 31.5439L32.2632 31.863C31.6103 32.4498 31.3747 33.3145 31.5115 34.2373C31.6477 35.1555 32.1586 36.1687 33.0703 37.0526C34.0042 37.9581 35.2012 38.5696 36.3594 38.7613C37.4815 38.9469 38.4577 38.7213 39.1069 38.1378C39.4224 37.8542 39.6397 37.5047 39.7651 37.116L39.7651 37.116C39.8968 36.708 39.9292 36.26 39.8655 35.7986L39.7954 35.2909L40.2036 35.3547C40.767 35.4428 41.2925 35.4262 41.7537 35.3141L41.3592 34.9645L41.7537 35.3141C42.1981 35.206 42.5889 35.008 42.9062 34.7229C43.559 34.1361 43.7947 33.2714 43.6578 32.3486C43.5217 31.4304 43.0107 30.4172 42.099 29.5332L41.696 29.5991L42.099 29.5332Z" stroke="#EE7333" stroke-opacity="0.25"/>
</svg>
